<svg width="22" height="21" viewBox="0 0 22 21" fill="none" xmlns="http://www.w3.org/2000/svg">
<path d="M10.9909 20.6109C16.5745 20.6109 21.1009 16.0845 21.1009 10.5009C21.1009 4.91727 16.5745 0.390869 10.9909 0.390869C5.40728 0.390869 0.880859 4.91727 0.880859 10.5009C0.880859 16.0845 5.40728 20.6109 10.9909 20.6109Z" fill="#05AED8"/>
<path d="M7.83375 16.0062H6.04171V7.82844L3.80797 8.82542V7.15958L6.30673 6.02378H7.83375V16.0062ZM10.7114 13.1793V12.9774H12.5161V13.0784C12.5161 14.1006 13.1471 14.6811 14.0178 14.6811C14.8886 14.6811 15.5196 14.1006 15.5196 13.0784C15.5196 12.0309 14.8886 11.4504 13.9674 11.4504H12.983V9.98646H13.9674C14.7246 9.98646 15.242 9.5069 15.242 8.66136C15.242 7.85368 14.7372 7.3615 14.0178 7.3615C13.2859 7.3615 12.7811 7.85368 12.7811 8.66136V8.7497H11.0143V8.52254C11.0143 6.99552 12.1122 5.8471 14.0178 5.8471C15.9235 5.8471 17.0088 6.99552 17.0088 8.52254C17.0088 9.55738 16.4283 10.4029 15.5322 10.7058C16.6428 11.0087 17.3117 11.8795 17.3117 13.1793C17.3117 15.0218 15.9613 16.1829 14.0178 16.1829C12.0744 16.1829 10.7114 15.0218 10.7114 13.1793Z" fill="white"/>
</svg>
