<svg width="22" height="21" viewBox="0 0 22 21" fill="none" xmlns="http://www.w3.org/2000/svg">
<path d="M10.9509 20.3907C16.5124 20.3907 21.0209 15.8822 21.0209 10.3207C21.0209 4.75923 16.5124 0.250732 10.9509 0.250732C5.38934 0.250732 0.880859 4.75923 0.880859 10.3207C0.880859 15.8822 5.38934 20.3907 10.9509 20.3907Z" fill="#05AED8"/>
<path d="M7.81155 15.5359H6.02661V7.39052L3.80172 8.38355V6.72431L6.29058 5.59301H7.81155V15.5359ZM17.1011 8.42126C17.1011 9.42686 16.8748 9.9548 16.1332 10.797L13.3175 14.0401H17.2393V15.5359H10.9795V14.1783L14.6751 9.91709C15.1276 9.38915 15.3161 8.97434 15.3161 8.43383C15.3161 7.50365 14.8133 6.92543 13.9711 6.92543C13.1415 6.92543 12.6262 7.49108 12.6262 8.43383V8.73551H10.8412V8.42126C10.8412 6.77459 11.9725 5.41703 13.9711 5.41703C15.9823 5.41703 17.1011 6.77459 17.1011 8.42126Z" fill="white"/>
</svg>
