<svg width="22" height="21" viewBox="0 0 22 21" fill="none" xmlns="http://www.w3.org/2000/svg">
<path d="M10.9909 20.2708C16.5745 20.2708 21.1009 15.7444 21.1009 10.1608C21.1009 4.57718 16.5745 0.0507812 10.9909 0.0507812C5.40728 0.0507812 0.880859 4.57718 0.880859 10.1608C0.880859 15.7444 5.40728 20.2708 10.9909 20.2708Z" fill="#05AED8"/>
<path d="M8.06422 15.7259H6.27218V7.54816L4.03844 8.54514V6.8793L6.5372 5.7435H8.06422V15.7259ZM17.4033 8.11606H15.586C15.4725 7.4472 15.0686 7.05598 14.3745 7.05598C13.3144 7.05598 12.9106 8.04034 12.8727 10.1479C13.163 9.60522 13.7814 9.25186 14.6395 9.25186C16.3559 9.25186 17.6052 10.4886 17.6052 12.5709C17.6052 14.628 16.217 15.9026 14.3367 15.9026C13.2513 15.9026 12.3932 15.4861 11.8127 14.6785C11.2069 13.8455 11.0428 12.7224 11.0428 11.1575C11.0428 7.20742 12.0272 5.56682 14.3745 5.56682C16.0404 5.56682 17.1888 6.45022 17.4033 8.11606ZM15.8132 12.5709C15.8132 11.4099 15.2453 10.741 14.324 10.741C13.4154 10.741 12.8475 11.4099 12.8475 12.5709C12.8475 13.7193 13.4154 14.4008 14.324 14.4008C15.2453 14.4008 15.8132 13.7193 15.8132 12.5709Z" fill="white"/>
</svg>
