<svg width="22" height="22" viewBox="0 0 22 22" fill="none" xmlns="http://www.w3.org/2000/svg">
<path d="M10.9509 21.1107C16.5124 21.1107 21.0209 16.6022 21.0209 11.0407C21.0209 5.47919 16.5124 0.970703 10.9509 0.970703C5.38934 0.970703 0.880859 5.47919 0.880859 11.0407C0.880859 16.6022 5.38934 21.1107 10.9509 21.1107Z" fill="#05AED8"/>
<path d="M8.05178 16.4158H6.26684V8.2704L4.04195 9.26343V7.60419L6.53081 6.47289H8.05178V16.4158ZM17.6053 11.438C17.6053 13.6629 17.2533 14.8948 16.5368 15.6867C15.9963 16.2901 15.217 16.5917 14.2365 16.5917C13.2435 16.5917 12.4641 16.2901 11.9236 15.6867C11.2071 14.8948 10.8552 13.6629 10.8552 11.438C10.8552 9.2383 11.2071 8.00643 11.9236 7.20196C12.4641 6.61116 13.2435 6.29691 14.2365 6.29691C15.217 6.29691 15.9963 6.61116 16.5368 7.20196C17.2533 8.00643 17.6053 9.2383 17.6053 11.438ZM15.8203 11.438C15.8203 9.67824 15.6946 8.81091 15.3301 8.30812C15.0536 7.96872 14.7016 7.80531 14.2365 7.80531C13.7589 7.80531 13.4069 7.96872 13.1429 8.30812C12.7658 8.81091 12.6401 9.67824 12.6401 11.438C12.6401 13.223 12.7658 14.0903 13.1429 14.5805C13.4069 14.9325 13.7589 15.0959 14.2365 15.0959C14.7016 15.0959 15.0536 14.9325 15.3301 14.5805C15.6946 14.0903 15.8203 13.223 15.8203 11.438Z" fill="white"/>
</svg>
