<svg width="21" height="21" viewBox="0 0 21 21" fill="none" xmlns="http://www.w3.org/2000/svg">
<path d="M10.04 20.4108C15.5849 20.4108 20.08 15.9157 20.08 10.3708C20.08 4.82586 15.5849 0.330811 10.04 0.330811C4.49506 0.330811 0 4.82586 0 10.3708C0 15.9157 4.49506 20.4108 10.04 20.4108Z" fill="#05AED8"/>
<path d="M6.68736 12.4218V12.1927H8.73512V12.3072C8.73512 13.4672 9.45112 14.1259 10.4392 14.1259C11.4273 14.1259 12.1433 13.4672 12.1433 12.3072C12.1433 11.1187 11.4273 10.4599 10.3819 10.4599H9.26496V8.79883H10.3819C11.2411 8.79883 11.8282 8.25467 11.8282 7.29523C11.8282 6.37875 11.2554 5.82027 10.4392 5.82027C9.60864 5.82027 9.03584 6.37875 9.03584 7.29523V7.39547H7.03104V7.13771C7.03104 5.40499 8.27688 4.10187 10.4392 4.10187C12.6015 4.10187 13.833 5.40499 13.833 7.13771C13.833 8.31195 13.1743 9.27139 12.1576 9.61507C13.4178 9.95875 14.1767 10.9468 14.1767 12.4218C14.1767 14.5125 12.6445 15.83 10.4392 15.83C8.23392 15.83 6.68736 14.5125 6.68736 12.4218Z" fill="white"/>
</svg>
