<svg width="21" height="21" viewBox="0 0 21 21" fill="none" xmlns="http://www.w3.org/2000/svg">
<path d="M10.04 20.331C15.5849 20.331 20.08 15.8359 20.08 10.291C20.08 4.74604 15.5849 0.250977 10.04 0.250977C4.49506 0.250977 0 4.74604 0 10.291C0 15.8359 4.49506 20.331 10.04 20.331Z" fill="#05AED8"/>
<path d="M14.0049 7.81463C14.0049 8.96023 13.7471 9.56167 12.9022 10.5211L9.69456 14.2157H14.1624V15.9198H7.03104V14.3732L11.2411 9.51871C11.7566 8.91727 11.9714 8.44471 11.9714 7.82895C11.9714 6.76927 11.3986 6.11055 10.4392 6.11055C9.49408 6.11055 8.90696 6.75495 8.90696 7.82895V8.17263H6.87352V7.81463C6.87352 5.93871 8.16232 4.39215 10.4392 4.39215C12.7304 4.39215 14.0049 5.93871 14.0049 7.81463Z" fill="white"/>
</svg>
