<svg width="22" height="22" viewBox="0 0 22 22" fill="none" xmlns="http://www.w3.org/2000/svg">
<path d="M10.9909 21.0508C16.5745 21.0508 21.1009 16.5244 21.1009 10.9408C21.1009 5.35721 16.5745 0.830811 10.9909 0.830811C5.40728 0.830811 0.880859 5.35721 0.880859 10.9408C0.880859 16.5244 5.40728 21.0508 10.9909 21.0508Z" fill="#05AED8"/>
<path d="M8.06422 16.6761H6.27218V8.49836L4.03844 9.49534V7.8295L6.5372 6.6937H8.06422V16.6761ZM14.3114 11.6912C13.794 11.6912 13.4154 11.931 13.2009 12.297H11.4467L11.7117 6.6937H16.9869V8.19548H13.3775L13.2387 10.8835C13.4911 10.4923 14.0464 10.2021 14.7279 10.2021C16.3559 10.2021 17.5295 11.3 17.5295 13.5337C17.5295 15.6287 16.3054 16.8528 14.3114 16.8528C12.4058 16.8528 11.2195 15.7549 11.1059 13.9502H12.898C12.9863 14.8715 13.5164 15.351 14.3114 15.351C15.1948 15.351 15.7375 14.7453 15.7375 13.5211C15.7375 12.3348 15.2327 11.6912 14.3114 11.6912Z" fill="white"/>
</svg>
