<svg width="22" height="21" viewBox="0 0 22 21" fill="none" xmlns="http://www.w3.org/2000/svg">
<path d="M10.9509 20.9708C16.5124 20.9708 21.0209 16.4623 21.0209 10.9008C21.0209 5.3393 16.5124 0.830811 10.9509 0.830811C5.38934 0.830811 0.880859 5.3393 0.880859 10.9008C0.880859 16.4623 5.38934 20.9708 10.9509 20.9708Z" fill="#05AED8"/>
<path d="M7.54077 13.5479H9.62442C9.73938 14.3095 10.1992 14.7693 11.0039 14.7693C12.1967 14.7693 12.6565 13.6485 12.6996 11.2487C12.3835 11.8522 11.665 12.2546 10.6878 12.2546C8.74785 12.2546 7.32522 10.8463 7.32522 8.48964C7.32522 6.13296 8.89155 4.68159 11.0327 4.68159C12.2541 4.68159 13.26 5.1558 13.9211 6.07548C14.5964 7.00953 14.7976 8.33157 14.7976 10.0991C14.7976 14.64 13.648 16.4506 10.9896 16.4506C9.1071 16.4506 7.79943 15.4447 7.54077 13.5479ZM9.36576 8.48964C9.36576 9.79731 9.99804 10.5733 11.0471 10.5733C12.0961 10.5733 12.7283 9.79731 12.7283 8.48964C12.7283 7.18197 12.0961 6.40599 11.0471 6.40599C9.99804 6.40599 9.36576 7.18197 9.36576 8.48964Z" fill="white"/>
</svg>
