<svg width="21" height="21" viewBox="0 0 21 21" fill="none" xmlns="http://www.w3.org/2000/svg">
<path d="M10.04 20.571C15.5849 20.571 20.08 16.0759 20.08 10.531C20.08 4.98602 15.5849 0.490967 10.04 0.490967C4.49506 0.490967 0 4.98602 0 10.531C0 16.0759 4.49506 20.571 10.04 20.571Z" fill="#05AED8"/>
<path d="M9.70025 10.6633C9.11313 10.6633 8.68353 10.9353 8.44009 11.3506H6.44961L6.75033 4.99254H12.7361V6.69662H8.64057L8.48305 9.74678C8.76945 9.30286 9.39953 8.9735 10.1728 8.9735C12.0201 8.9735 13.3519 10.2193 13.3519 12.754C13.3519 15.1311 11.9628 16.5201 9.70025 16.5201C7.53793 16.5201 6.19185 15.2743 6.06297 13.2265H8.09641C8.19665 14.2719 8.79809 14.8161 9.70025 14.8161C10.7027 14.8161 11.3184 14.1287 11.3184 12.7397C11.3184 11.3936 10.7456 10.6633 9.70025 10.6633Z" fill="white"/>
</svg>
