<svg width="21" height="21" viewBox="0 0 21 21" fill="none" xmlns="http://www.w3.org/2000/svg">
<path d="M10.07 20.931C15.6315 20.931 20.14 16.4225 20.14 10.861C20.14 5.29951 15.6315 0.791016 10.07 0.791016C4.50848 0.791016 0 5.29951 0 10.861C0 16.4225 4.50848 20.931 10.07 20.931Z" fill="#05AED8"/>
<path d="M10.2237 16.4709C7.89573 16.4709 6.30066 15.1488 6.30066 13.0508C6.30066 11.6282 7.06227 10.6798 8.29809 10.2343C7.30656 9.86069 6.63117 8.86916 6.63117 7.7483C6.63117 6.0239 7.96758 4.70186 10.2237 4.70186C12.4798 4.70186 13.8018 6.0239 13.8018 7.7483C13.8018 8.86916 13.1408 9.86069 12.1493 10.2343C13.3851 10.6798 14.1467 11.6282 14.1467 13.0508C14.1467 15.1488 12.5372 16.4709 10.2237 16.4709ZM10.2237 6.42626C9.27525 6.42626 8.65734 7.0298 8.65734 7.92074C8.65734 8.81168 9.27525 9.41522 10.2237 9.41522C11.1721 9.41522 11.7756 8.81168 11.7756 7.92074C11.7756 7.0298 11.1721 6.42626 10.2237 6.42626ZM10.2237 11.0678C9.10281 11.0678 8.3412 11.7719 8.3412 12.9215C8.3412 14.0567 9.10281 14.7609 10.2237 14.7609C11.3302 14.7609 12.0918 14.0567 12.0918 12.9215C12.0918 11.7719 11.3302 11.0678 10.2237 11.0678Z" fill="white"/>
</svg>
