<svg width="21" height="21" viewBox="0 0 21 21" fill="none" xmlns="http://www.w3.org/2000/svg">
<path d="M10.04 20.6508C15.5849 20.6508 20.08 16.1557 20.08 10.6108C20.08 5.06586 15.5849 0.570801 10.04 0.570801C4.49506 0.570801 0 5.06586 0 10.6108C0 16.1557 4.49506 20.6508 10.04 20.6508Z" fill="#05AED8"/>
<path d="M13.2087 7.77454H11.1466C11.0177 7.01558 10.5595 6.57166 9.77185 6.57166C8.56897 6.57166 8.11073 7.68862 8.06777 10.0801C8.39713 9.4643 9.09881 9.06334 10.0726 9.06334C12.0201 9.06334 13.4378 10.4667 13.4378 12.8295C13.4378 15.1637 11.8626 16.61 9.72889 16.61C8.49737 16.61 7.52361 16.1374 6.86489 15.2209C6.17753 14.2758 5.99137 13.0013 5.99137 11.2257C5.99137 6.7435 7.10833 4.8819 9.77185 4.8819C11.6621 4.8819 12.9652 5.8843 13.2087 7.77454ZM11.4043 12.8295C11.4043 11.5121 10.7599 10.7531 9.71457 10.7531C8.68353 10.7531 8.03913 11.5121 8.03913 12.8295C8.03913 14.1326 8.68353 14.9059 9.71457 14.9059C10.7599 14.9059 11.4043 14.1326 11.4043 12.8295Z" fill="white"/>
</svg>
