<svg width="29" height="28" viewBox="0 0 29 28" fill="none" xmlns="http://www.w3.org/2000/svg">
<g id="&#234;&#181;&#172;&#234;&#184;&#137;&#236;&#131;&#129;&#236;&#158;&#144;">
<path id="Vector" d="M27.8134 9.91387C26.8034 6.91387 24.2034 4.89387 21.2634 4.49387C19.9234 1.85387 17.1634 0.0538655 13.9934 0.0838655C10.8234 0.113865 8.10339 1.96387 6.81339 4.63387C3.88339 5.09387 1.32339 7.16386 0.37339 10.1839C-0.57661 13.2039 0.343406 16.3639 2.48341 18.4139C2.01341 21.3439 3.1834 24.4139 5.7634 26.2539C8.3434 28.0939 11.6334 28.1939 14.2434 26.7939C16.8834 28.1439 20.1734 27.9839 22.7134 26.0939C25.2534 24.2039 26.3734 21.1139 25.8434 18.1939C27.9434 16.1039 28.8034 12.9239 27.7934 9.92386L27.8134 9.91387Z" fill="#FF64DE"/>
<path id="Vector_2" d="M18.134 9.50381V6.91382H10.514V9.50381H6.33398V20.8338H22.244V9.50381H18.124H18.134ZM11.804 8.20382H16.854V9.50381H11.804V8.20382Z" fill="white"/>
<path id="Vector_3" d="M17.813 14.184H15.303V11.834C15.303 11.284 14.853 10.834 14.303 10.834C13.753 10.834 13.303 11.284 13.303 11.834V14.184H10.793C10.243 14.184 9.79297 14.634 9.79297 15.184C9.79297 15.734 10.243 16.184 10.793 16.184H13.303V18.484C13.303 19.034 13.753 19.484 14.303 19.484C14.853 19.484 15.303 19.034 15.303 18.484V16.184H17.813C18.363 16.184 18.813 15.734 18.813 15.184C18.813 14.634 18.363 14.184 17.813 14.184Z" fill="#FF64DE"/>
</g>
</svg>
