<svg width="25" height="20" viewBox="0 0 25 20" fill="none" xmlns="http://www.w3.org/2000/svg">
<path id="Vector" d="M20.2509 12.3492C23.2154 12.2042 25.4651 10.3575 24.3754 7.52453C23.3443 4.87529 20.1337 4.33384 17.6145 5.63913C16.8528 6.02588 16.1732 6.61567 15.5874 7.24414C16.1264 6.59633 16.6068 5.87118 16.8294 5.14602C17.5793 2.76751 16.1381 0.437336 12.5408 0.417998C9.16624 0.40833 7.56096 2.76751 8.27572 5.14602C8.48663 5.86151 8.95533 6.577 9.49432 7.2248C8.90846 6.59633 8.22885 6.00654 7.4555 5.60045C4.94798 4.27583 1.80772 4.68192 0.682852 7.5052C-0.371713 10.1544 1.84287 12.1462 4.80737 12.3106C5.69789 12.3589 6.65872 12.2235 7.58439 11.9915C6.68215 12.2526 5.79163 12.6103 5.07687 13.0841C2.78026 14.6407 2.27642 17.232 5.18233 18.9917C7.90076 20.6354 10.8887 19.5138 12.0018 17.232C12.3299 16.5552 12.4705 15.7526 12.494 14.9695C12.5174 15.7623 12.6463 16.5648 12.9861 17.261C14.0758 19.5428 16.8997 20.7417 19.8291 19.0013C22.5709 17.377 22.196 14.6891 19.9111 13.1034C19.2315 12.6296 18.341 12.2816 17.4387 12.0108C18.3644 12.2332 19.3369 12.3879 20.2509 12.3396V12.3492ZM12.5174 13.4128C12.5174 13.4128 12.5526 13.4128 12.576 13.4128C12.5408 13.6932 12.5174 13.9929 12.5057 14.2927C12.5057 13.9833 12.4705 13.6932 12.4354 13.4031C12.4588 13.4031 12.494 13.4031 12.5174 13.4031V13.4128ZM14.5211 8.53008C14.5211 8.53008 14.4508 8.48174 14.4156 8.45273C14.65 8.24002 14.8843 8.00797 15.107 7.76625C14.896 8.02731 14.6968 8.2787 14.5211 8.53008ZM10.6426 8.44306C10.6426 8.44306 10.5723 8.49141 10.5372 8.52042C10.3614 8.26903 10.1739 8.01764 9.96302 7.75658C10.1856 7.9983 10.42 8.23035 10.6543 8.44306H10.6426ZM9.36543 11.4597C9.36543 11.4597 9.38887 11.5371 9.4123 11.5757C9.0725 11.6338 8.72098 11.7111 8.35774 11.7981C8.70926 11.6918 9.04906 11.5854 9.37715 11.4694L9.36543 11.4597ZM15.6225 11.5951C15.6225 11.5951 15.646 11.5177 15.6694 11.4791C15.9858 11.5951 16.3256 11.7111 16.6888 11.8175C16.3256 11.7304 15.974 11.6531 15.6342 11.5951H15.6225Z" fill="#05AED8"/>
</svg>
