<svg width="29" height="29" viewBox="0 0 29 29" fill="none" xmlns="http://www.w3.org/2000/svg">
<g id="&#235;&#167;&#164;&#237;&#145;&#156;&#236;&#134;&#140;">
<path id="Vector" d="M27.8134 10.2432C26.8034 7.24321 24.2034 5.22321 21.2634 4.82321C19.9234 2.18321 17.1634 0.383211 13.9934 0.413211C10.8234 0.443211 8.10339 2.29321 6.81339 4.96321C3.88339 5.42321 1.32339 7.49321 0.373393 10.5132C-0.576607 13.5332 0.343393 16.6932 2.48339 18.7432C2.01339 21.6732 3.18339 24.7432 5.76339 26.5832C8.34339 28.4232 11.6334 28.5232 14.2434 27.1232C16.8834 28.4732 20.1734 28.3132 22.7134 26.4232C25.2534 24.5332 26.3734 21.4432 25.8434 18.5232C27.9434 16.4332 28.8034 13.2532 27.7934 10.2532L27.8134 10.2432Z" fill="#FF64DE"/>
<path id="Vector_2" d="M18.5941 16.0732L19.7241 15.4632L20.0241 16.0332L23.5141 14.1832L22.2341 11.7732C22.2341 11.7732 22.2141 11.7832 22.2041 11.7932C21.7141 12.0532 21.0941 11.8632 20.8341 11.3732C20.5741 10.8832 20.7641 10.2632 21.2541 10.0032C21.2541 10.0032 21.2741 10.0032 21.2841 9.99324L19.9941 7.57324L16.4741 9.44324L16.7841 10.0032L15.6541 10.6132L15.3441 10.0432L5.24414 15.3932L8.75414 22.0132L18.8741 16.6432L18.5741 16.0732H18.5941ZM16.2241 11.6432L17.3541 11.0332L17.9841 12.2032L16.8541 12.8132L16.2241 11.6432ZM17.4141 13.8632L18.5441 13.2532L19.1741 14.4232L18.0441 15.0332L17.4141 13.8632Z" fill="white"/>
</g>
</svg>
