<svg width="29" height="29" viewBox="0 0 29 29" fill="none" xmlns="http://www.w3.org/2000/svg">
<g id="&#235;&#172;&#188;&#237;&#146;&#136;&#235;&#179;&#180;&#234;&#180;&#128;&#237;&#149;&#168;">
<path id="Vector" d="M27.8837 10.5794C26.8737 7.57939 24.2737 5.55939 21.3337 5.15939C19.9937 2.51939 17.2337 0.719393 14.0637 0.749393C10.8937 0.779393 8.17371 2.62939 6.88371 5.29939C3.95371 5.75939 1.3937 7.82939 0.443703 10.8494C-0.506297 13.8694 0.413719 17.0294 2.55372 19.0794C2.08372 22.0094 3.25372 25.0794 5.83372 26.9194C8.41372 28.7594 11.7037 28.8594 14.3137 27.4594C16.9537 28.8094 20.2437 28.6494 22.7837 26.7594C25.3237 24.8694 26.4437 21.7794 25.9137 18.8594C28.0137 16.7694 28.8737 13.5894 27.8637 10.5894L27.8837 10.5794Z" fill="#FF64DE"/>
<path id="Vector_2" d="M18.4227 6.69934H14.1727C13.8927 5.75934 13.0226 5.06934 11.9926 5.06934C10.7426 5.06934 9.72266 6.08934 9.72266 7.33934C9.72266 8.58934 10.7426 9.60934 11.9926 9.60934C13.0226 9.60934 13.8927 8.91934 14.1727 7.97934H14.4227V8.95934H15.7126V7.97934H16.1027V8.95934H17.3927V7.97934H18.4326V6.68934L18.4227 6.69934ZM11.9926 8.32934C11.4526 8.32934 11.0127 7.88934 11.0127 7.34934C11.0127 6.80934 11.4526 6.36934 11.9926 6.36934C12.5326 6.36934 12.9727 6.80934 12.9727 7.34934C12.9727 7.88934 12.5326 8.32934 11.9926 8.32934Z" fill="white"/>
<path id="Vector_3" d="M22.8639 22.8293H5.50391V10.8093H22.8639V22.8293ZM6.79391 21.5393H21.5739V12.0993H6.79391V21.5393Z" fill="white"/>
<path id="Vector_4" d="M16.9232 15.2793V12.7893H11.3532V15.2793H9.0332V20.6793H19.3432V15.2793H16.9232ZM12.6332 14.0793H15.6332V15.2793H12.6332V14.0793Z" fill="white"/>
<path id="Vector_5" d="M19.7643 16.4595H8.6543V17.1695H19.7643V16.4595Z" fill="#FF64DE"/>
<path id="Vector_6" d="M15.6233 16.2295H13.1133V17.5195H15.6233V16.2295Z" fill="white"/>
<path id="Vector_7" d="M15.9739 17.8794H12.7539V15.8794H15.9739V17.8794ZM13.4639 17.1694H15.2539V16.5994H13.4639V17.1694Z" fill="#FF64DE"/>
</g>
</svg>
