<svg width="29" height="29" viewBox="0 0 29 29" fill="none" xmlns="http://www.w3.org/2000/svg">
<g id="&#236;&#131;&#129;&#236;&#160;&#144;">
<path id="Vector" d="M27.8134 10.2449C26.8034 7.24492 24.2034 5.22492 21.2634 4.82492C19.9234 2.18492 17.1634 0.38492 13.9934 0.41492C10.8234 0.44492 8.10339 2.29492 6.81339 4.96492C3.88339 5.42492 1.32339 7.49492 0.373393 10.5149C-0.576607 13.5349 0.343393 16.6949 2.48339 18.7449C2.01339 21.6749 3.18339 24.7449 5.76339 26.5849C8.34339 28.4249 11.6334 28.5249 14.2434 27.1249C16.8834 28.4749 20.1734 28.3149 22.7134 26.4249C25.2534 24.5349 26.3734 21.4449 25.8434 18.5249C27.9434 16.4349 28.8034 13.2549 27.7934 10.2549L27.8134 10.2449Z" fill="#FF64DE"/>
<path id="Vector_2" d="M17.7043 24.265C17.3443 24.265 17.0243 24.205 16.7643 24.125C15.6343 23.795 14.7043 22.865 14.1943 21.575C14.1543 21.485 14.1243 21.395 14.0943 21.295C14.0643 21.385 14.0343 21.465 14.0043 21.555C13.4943 22.825 12.5243 23.745 11.3643 24.075C10.2743 24.385 9.1143 24.135 8.0943 23.385C6.7043 22.365 6.3943 21.205 6.3643 20.415C6.3343 19.235 6.9243 18.065 7.9943 17.185C8.0743 17.125 8.1443 17.065 8.2343 17.005C8.1443 17.005 8.0443 17.005 7.9543 16.995C6.5943 16.895 5.4143 16.265 4.7443 15.255C4.1143 14.315 3.9843 13.135 4.3843 11.935C4.9243 10.305 5.9243 9.64498 6.6743 9.37498C7.7843 8.98498 9.0843 9.18499 10.2543 9.92499C10.3343 9.97499 10.4143 10.035 10.5043 10.095C10.4743 10.005 10.4543 9.91499 10.4343 9.82499C10.1043 8.49499 10.3443 7.18499 11.0943 6.23499C11.7843 5.35499 12.8643 4.86499 14.1243 4.86499H14.1443C15.8643 4.86499 16.8043 5.62499 17.2843 6.25499C18.0043 7.18499 18.2143 8.48499 17.8643 9.82499C17.8443 9.91499 17.8143 10.015 17.7843 10.115C17.8643 10.065 17.9343 10.005 18.0143 9.96499C19.1743 9.24499 20.4943 9.06499 21.6343 9.48499C22.6943 9.87499 23.4943 10.755 23.8743 11.965C24.3943 13.605 23.9743 14.725 23.5243 15.385C22.8643 16.355 21.6843 16.955 20.3043 17.045C20.2043 17.045 20.1043 17.045 20.0043 17.045C20.0843 17.105 20.1543 17.155 20.2243 17.215C21.2743 18.095 21.8443 19.295 21.8043 20.505C21.7643 21.635 21.1743 22.665 20.1443 23.405C19.2343 24.065 18.4043 24.265 17.7243 24.265H17.7043ZM13.7843 19.245H14.4243C14.4443 20.075 14.5743 20.785 14.7943 21.355C15.2243 22.455 16.0143 23.245 16.9543 23.525C17.8543 23.785 18.8243 23.575 19.7643 22.895C20.6443 22.265 21.1243 21.425 21.1643 20.485C21.2043 19.475 20.7143 18.455 19.8143 17.705C19.3543 17.325 18.7343 16.985 17.9443 16.705L18.1443 16.105C18.9443 16.345 19.6543 16.445 20.2743 16.405C21.4543 16.335 22.4543 15.835 23.0043 15.025C23.5343 14.255 23.6243 13.265 23.2743 12.165C22.9443 11.135 22.3043 10.415 21.4143 10.095C20.4643 9.74499 19.3443 9.90499 18.3543 10.525C17.8543 10.835 17.3343 11.335 16.8243 11.995L16.3143 11.625C16.7843 10.935 17.1043 10.285 17.2543 9.69498C17.5543 8.54498 17.3843 7.44499 16.7843 6.67499C16.2143 5.93499 15.3043 5.54499 14.1443 5.53499C13.0643 5.53499 12.1743 5.91499 11.5943 6.65499C10.9643 7.45499 10.7743 8.56498 11.0543 9.69498C11.1943 10.275 11.5043 10.915 11.9743 11.605L11.4643 11.975C10.9543 11.315 10.4443 10.815 9.9243 10.485C8.9243 9.84499 7.8243 9.66499 6.9043 9.99499C6.0243 10.305 5.3643 11.055 5.0043 12.155C4.6643 13.185 4.7643 14.145 5.2843 14.925C5.8543 15.765 6.8443 16.295 8.0143 16.385C8.6043 16.425 9.3143 16.325 10.1143 16.095L10.3143 16.695C9.5243 16.975 8.8943 17.315 8.4143 17.695C7.5043 18.445 6.9943 19.445 7.0143 20.415C7.0443 21.345 7.5443 22.205 8.4843 22.885C9.3543 23.525 10.3043 23.725 11.2043 23.475C12.1843 23.195 12.9943 22.415 13.4343 21.335C13.6543 20.785 13.7843 20.085 13.8043 19.255L13.7843 19.245ZM10.6643 20.165C10.3643 20.165 10.1143 19.925 10.1143 19.615C10.1143 19.305 10.3843 19.055 10.6843 19.075L12.0843 17.135C12.0843 17.135 12.0543 17.105 12.0343 17.085L10.8143 17.985C10.8143 18.285 10.5743 18.535 10.2643 18.535C9.9543 18.535 9.7143 18.295 9.7143 17.985C9.7143 17.675 9.9543 17.435 10.2643 17.435C10.3243 17.435 10.3743 17.435 10.4343 17.465L11.6343 16.585C11.3643 16.155 11.1943 15.655 11.1943 15.115L9.7543 15.265C9.6643 15.425 9.4843 15.535 9.2843 15.535C8.9843 15.535 8.7343 15.295 8.7343 14.985C8.7343 14.675 8.9743 14.435 9.2843 14.435C9.4443 14.435 9.5943 14.505 9.6943 14.615L11.2643 14.455C11.2643 14.455 11.2643 14.435 11.2643 14.425L8.8243 13.675C8.7343 13.745 8.6143 13.785 8.4943 13.785C8.1943 13.785 7.9443 13.545 7.9443 13.235C7.9443 12.925 8.1843 12.685 8.4943 12.685C8.7343 12.685 8.9343 12.845 9.0143 13.055L11.4743 13.815L10.1043 12.775C10.0543 12.795 9.9943 12.795 9.9443 12.795C9.6443 12.795 9.3943 12.555 9.3943 12.245C9.3943 11.935 9.6343 11.695 9.9443 11.695C10.2543 11.695 10.4943 11.935 10.4943 12.245C10.4943 12.245 10.4943 12.245 10.4943 12.255L11.8243 13.265C12.1543 12.855 12.6043 12.535 13.1243 12.365L12.5643 10.295C12.3043 10.195 12.1543 9.91499 12.2243 9.64499C12.3043 9.35499 12.5943 9.18499 12.8943 9.25499C13.1843 9.33499 13.3643 9.63499 13.2843 9.92499C13.2643 10.005 13.2243 10.075 13.1843 10.135L13.7543 12.235C13.7543 12.235 13.7943 12.235 13.8143 12.235V9.05499C13.7543 9.01499 13.7043 8.95499 13.6643 8.88499C13.5943 8.75499 13.5743 8.61499 13.6043 8.47499C13.6443 8.33499 13.7343 8.21499 13.8543 8.14499C13.9843 8.07499 14.1243 8.05499 14.2643 8.08499C14.4043 8.12499 14.5243 8.21499 14.5943 8.33499C14.6643 8.46499 14.6843 8.60499 14.6543 8.74499C14.6243 8.86499 14.5443 8.97499 14.4443 9.05499V12.265C14.4443 12.265 14.4843 12.265 14.5043 12.265L15.0643 10.135C14.9543 10.005 14.9143 9.82499 14.9543 9.64499C15.0343 9.35499 15.3243 9.18499 15.6243 9.25499C15.9143 9.33499 16.0943 9.63499 16.0143 9.92499C15.9643 10.105 15.8443 10.235 15.6843 10.295L15.1243 12.435C15.5543 12.615 15.9343 12.905 16.2243 13.255L17.7043 12.135C17.7543 11.885 17.9743 11.695 18.2343 11.695C18.5343 11.695 18.7843 11.935 18.7843 12.245C18.7843 12.555 18.5443 12.795 18.2343 12.795C18.1443 12.795 18.0543 12.775 17.9743 12.725L16.5643 13.795C16.5643 13.795 16.5643 13.795 16.5643 13.805L19.1843 13.005C19.2743 12.815 19.4643 12.685 19.6843 12.685C19.9843 12.685 20.2343 12.925 20.2343 13.235C20.2343 13.545 19.9943 13.785 19.6843 13.785C19.5443 13.785 19.4143 13.725 19.3143 13.635L16.7743 14.415C16.7743 14.415 16.7743 14.435 16.7743 14.445L18.4643 14.615C18.5643 14.495 18.7143 14.415 18.8843 14.415C19.1843 14.415 19.4343 14.655 19.4343 14.965C19.4343 15.275 19.1943 15.515 18.8843 15.515C18.6843 15.515 18.5143 15.415 18.4243 15.255L16.8343 15.095C16.8343 15.615 16.6743 16.105 16.4143 16.515L17.6443 17.405C17.6943 17.385 17.7543 17.375 17.8143 17.375C18.1143 17.375 18.3643 17.615 18.3643 17.925C18.3643 18.235 18.1243 18.475 17.8143 18.475C17.5043 18.475 17.2643 18.235 17.2643 17.925L16.0143 17.025C15.9943 17.045 15.9643 17.075 15.9443 17.095L17.3843 19.005C17.3843 19.005 17.4143 19.005 17.4343 19.005C17.7343 19.005 17.9843 19.245 17.9843 19.555C17.9843 19.865 17.7443 20.105 17.4343 20.105C17.1243 20.105 16.8843 19.865 16.8843 19.555C16.8843 19.515 16.8843 19.465 16.9043 19.425L15.4443 17.485C15.4443 17.485 15.4043 17.505 15.3843 17.515L15.8843 18.885C16.1143 18.945 16.2843 19.165 16.2843 19.415C16.2843 19.715 16.0443 19.965 15.7343 19.965C15.4243 19.965 15.1843 19.725 15.1843 19.415C15.1843 19.305 15.2243 19.195 15.2743 19.105L14.7843 17.755C14.2843 17.895 13.7143 17.905 13.2243 17.755L12.7743 19.125C12.8443 19.215 12.8843 19.325 12.8843 19.445C12.8843 19.745 12.6443 19.995 12.3343 19.995C12.0243 19.995 11.7843 19.755 11.7843 19.445C11.7843 19.205 11.9443 18.995 12.1643 18.925L12.6243 17.505C12.6243 17.505 12.5943 17.485 12.5743 17.475L11.1643 19.435C11.1643 19.435 11.1843 19.535 11.1843 19.585C11.1843 19.885 10.9443 20.135 10.6343 20.135L10.6643 20.165ZM10.5743 19.595V19.615C10.5743 19.685 10.6643 19.725 10.7143 19.685L10.5743 19.585V19.595ZM17.3943 19.655C17.4443 19.685 17.5243 19.645 17.5243 19.575C17.5243 19.575 17.5243 19.565 17.5243 19.555L17.3943 19.655ZM12.2643 19.445C12.2643 19.445 12.2643 19.465 12.2643 19.475C12.2643 19.525 12.3043 19.565 12.3543 19.565C12.3943 19.565 12.4243 19.535 12.4443 19.505L12.2743 19.445H12.2643ZM15.6543 19.455C15.6543 19.455 15.7043 19.515 15.7343 19.515C15.7843 19.515 15.8243 19.475 15.8243 19.425C15.8243 19.415 15.8243 19.405 15.8243 19.395L15.6543 19.455ZM10.2143 17.915C10.2143 17.915 10.1743 17.955 10.1743 17.985C10.1743 18.055 10.2643 18.095 10.3143 18.055L10.2043 17.915H10.2143ZM17.7543 18.015C17.8043 18.055 17.8943 18.015 17.8943 17.945C17.8943 17.915 17.8843 17.885 17.8543 17.875L17.7543 18.025V18.015ZM14.0043 12.885C12.8043 12.885 11.8243 13.865 11.8243 15.065C11.8243 16.265 12.8043 17.245 14.0043 17.245C15.2043 17.245 16.1843 16.265 16.1843 15.065C16.1843 13.865 15.2043 12.885 14.0043 12.885ZM18.8643 14.895C18.8643 14.895 18.7743 14.935 18.7743 14.985C18.7743 15.035 18.8143 15.075 18.8643 15.075C18.9143 15.075 18.9543 15.035 18.9543 14.985C18.9543 14.935 18.9143 14.895 18.8643 14.895ZM9.2643 14.895C9.2643 14.895 9.1843 14.935 9.1843 14.985C9.1843 15.035 9.2343 15.075 9.2843 15.075L9.2643 14.895ZM19.6543 13.165C19.6543 13.165 19.5643 13.205 19.5643 13.255C19.5643 13.305 19.6043 13.345 19.6543 13.345C19.7043 13.345 19.7443 13.305 19.7443 13.255C19.7443 13.205 19.7043 13.165 19.6543 13.165ZM8.4743 13.165C8.4743 13.165 8.3843 13.205 8.3843 13.255C8.3843 13.295 8.4143 13.325 8.4443 13.345L8.4943 13.175C8.4943 13.175 8.4743 13.175 8.4643 13.175L8.4743 13.165ZM18.1943 12.185C18.1943 12.185 18.1043 12.225 18.1043 12.275C18.1043 12.325 18.1443 12.365 18.1943 12.365C18.2443 12.365 18.2843 12.325 18.2843 12.275C18.2843 12.225 18.2443 12.185 18.1943 12.185ZM9.9243 12.185C9.9243 12.185 9.8343 12.225 9.8343 12.275C9.8343 12.305 9.8443 12.335 9.8743 12.345L9.9843 12.205C9.9843 12.205 9.9543 12.185 9.9343 12.185H9.9243ZM12.7243 9.72499C12.7243 9.72499 12.6443 9.75499 12.6343 9.79499C12.6343 9.81499 12.6343 9.82499 12.6343 9.84499L12.7243 9.82499L12.7443 9.73499H12.7243V9.72499ZM15.4343 9.81499L15.5243 9.83499C15.5243 9.83499 15.5043 9.73499 15.4643 9.72499L15.4443 9.81499H15.4343ZM12.7443 9.72499L12.7243 9.81499L12.8143 9.79499C12.8143 9.79499 12.7843 9.74499 12.7543 9.73499L12.7443 9.72499ZM15.3443 9.78499L15.4343 9.80499L15.4543 9.71499C15.4543 9.71499 15.3543 9.73499 15.3443 9.77499V9.78499ZM13.9943 8.62498H14.1743C14.1743 8.62498 14.1743 8.59499 14.1643 8.57499C14.1543 8.55499 14.1343 8.53499 14.1143 8.53499C14.0943 8.53499 14.0643 8.53499 14.0443 8.53499C14.0243 8.54499 14.0043 8.56499 14.0043 8.58499V8.60499L13.9943 8.62498Z" fill="white"/>
</g>
</svg>
