<svg width="29" height="29" viewBox="0 0 29 29" fill="none" xmlns="http://www.w3.org/2000/svg">
<g id="&#236;&#136;&#152;&#236;&#156;&#160;&#236;&#139;&#164;">
<path id="Vector" d="M27.9931 10.2466C26.9831 7.24663 24.3831 5.22663 21.4431 4.82663C20.1031 2.18663 17.3431 0.386629 14.1731 0.416629C11.0031 0.446629 8.28306 2.29663 6.99306 4.96663C4.06306 5.42663 1.50308 7.49663 0.553083 10.5166C-0.396917 13.5366 0.523068 16.6966 2.66307 18.7466C2.19307 21.6766 3.36307 24.7466 5.94307 26.5866C8.52307 28.4266 11.8131 28.5266 14.4231 27.1266C17.0631 28.4766 20.3531 28.3166 22.8931 26.4266C25.4331 24.5366 26.5531 21.4466 26.0231 18.5266C28.1231 16.4366 28.9831 13.2566 27.9731 10.2566L27.9931 10.2466Z" fill="#FF64DE"/>
<path id="Vector_2" d="M16.863 13.7566V20.7266H12.073V13.7566H16.863ZM17.893 12.7266H11.043V21.7466H17.893V12.7266Z" fill="white"/>
<path id="Vector_3" d="M15.5627 7.92653V7.54654C15.5627 6.93654 15.0727 6.44653 14.4627 6.44653C13.8527 6.44653 13.3627 6.93654 13.3627 7.54654V7.93653C12.0227 8.42653 11.0527 9.76653 11.0527 11.3465V11.9865H17.9027V11.3465C17.9027 9.75653 16.9227 8.41653 15.5727 7.92653H15.5627Z" fill="white"/>
<path id="Vector_4" d="M11.043 15.7767H13.863C14.223 15.7767 14.503 15.5267 14.503 15.2167C14.503 14.9067 14.213 14.6567 13.863 14.6567H11.043V15.7667V15.7767Z" fill="white"/>
<path id="Vector_5" d="M11.043 17.8065H13.863C14.223 17.8065 14.503 17.5565 14.503 17.2465C14.503 16.9365 14.213 16.6865 13.863 16.6865H11.043V17.7965V17.8065Z" fill="white"/>
<path id="Vector_6" d="M11.043 19.8265H13.863C14.223 19.8265 14.503 19.5765 14.503 19.2665C14.503 18.9565 14.213 18.7065 13.863 18.7065H11.043V19.8165V19.8265Z" fill="white"/>
</g>
</svg>
