<svg width="29" height="29" viewBox="0 0 29 29" fill="none" xmlns="http://www.w3.org/2000/svg">
<g id="&#236;&#139;&#172;&#236;&#158;&#165;&#236;&#160;&#156;&#236;&#132;&#184;&#235;&#143;&#153;&#234;&#184;&#176;">
<path id="Vector" d="M27.8134 10.5811C26.8034 7.5811 24.2034 5.56111 21.2634 5.16111C19.9234 2.52111 17.1634 0.721102 13.9934 0.751102C10.8234 0.781102 8.10339 2.6311 6.81339 5.30111C3.88339 5.76111 1.32339 7.8311 0.37339 10.8511C-0.57661 13.8711 0.343406 17.0311 2.48341 19.0811C2.01341 22.0111 3.1834 25.0811 5.7634 26.9211C8.3434 28.7611 11.6334 28.8611 14.2434 27.4611C16.8834 28.8111 20.1734 28.6511 22.7134 26.7611C25.2534 24.8711 26.3734 21.7811 25.8434 18.8611C27.9434 16.7711 28.8034 13.5911 27.7934 10.5911L27.8134 10.5811Z" fill="#FF64DE"/>
<path id="Vector_2" d="M18.0531 8.26123C16.1031 8.26123 14.9331 9.30123 14.2831 10.4512C13.6631 9.30123 12.5331 8.26123 10.6131 8.26123C7.60307 8.26123 5.87305 10.3412 5.87305 13.9712C5.87305 18.6612 13.573 23.8112 13.903 24.0312C14.013 24.1012 14.1331 24.1412 14.2531 24.1412C14.3731 24.1412 14.5031 24.1012 14.6031 24.0312C14.9331 23.8112 22.6331 18.6712 22.6331 13.9712C22.6331 10.2912 21.0031 8.26123 18.0431 8.26123H18.0531Z" fill="white"/>
<path id="Vector_3" d="M14.6534 20.821C14.5934 20.821 14.5334 20.821 14.4734 20.791C14.1334 20.691 13.9434 20.331 14.0434 19.991L15.4634 15.231L11.7734 16.591L13.9234 8.89098C14.0234 8.55098 14.3734 8.35098 14.7134 8.44098C15.0534 8.54098 15.2534 8.89098 15.1634 9.23098L13.6934 14.501L17.4334 13.121L15.2834 20.351C15.2034 20.631 14.9434 20.811 14.6634 20.811L14.6534 20.821Z" fill="#FF64DE"/>
</g>
</svg>
