<svg width="29" height="28" viewBox="0 0 29 28" fill="none" xmlns="http://www.w3.org/2000/svg">
<g id="&#236;&#157;&#184;&#237;&#143;&#172;">
<path id="Vector" d="M27.8134 9.91045C26.8034 6.91045 24.2034 4.89045 21.2634 4.49045C19.9234 1.85045 17.1634 0.0504475 13.9934 0.0804475C10.8234 0.110448 8.10339 1.96045 6.81339 4.63045C3.88339 5.09045 1.32339 7.16045 0.373393 10.1804C-0.576607 13.2004 0.343393 16.3605 2.48339 18.4104C2.01339 21.3405 3.18339 24.4104 5.76339 26.2504C8.34339 28.0904 11.6334 28.1904 14.2434 26.7904C16.8834 28.1404 20.1734 27.9804 22.7134 26.0904C25.2534 24.2004 26.3734 21.1104 25.8434 18.1904C27.9434 16.1004 28.8034 12.9204 27.7934 9.92045L27.8134 9.91045Z" fill="#FF64DE"/>
<path id="Vector_2" d="M13.0234 9.0005V6.7605H15.1334V9.0005H13.0234ZM13.0234 21.6505V11.0105H15.1334V21.6505H13.0234Z" fill="white"/>
</g>
</svg>
