<svg width="56" height="56" viewBox="0 0 56 56" fill="none" xmlns="http://www.w3.org/2000/svg">
<path id="&#237;&#143;&#172;&#237;&#134;&#160;&#236;&#138;&#164;&#237;&#140;&#159; &#236;&#149;&#132;&#236;&#157;&#180;&#236;&#189;&#152;" d="M55.3694 28.0498C55.3694 29.7898 46.0594 30.4598 45.6894 32.0898C45.3194 33.7198 53.3894 38.4098 52.6594 39.9298C51.9294 41.4498 43.2394 38.0298 42.1794 39.3598C41.1194 40.6898 46.3894 48.3798 45.0594 49.4498C43.7394 50.5098 37.4094 43.6598 35.8594 44.3998C34.3394 45.1298 35.7594 54.3598 34.0794 54.7398C32.4494 55.1098 29.7294 46.1898 27.9894 46.1898C26.2494 46.1898 23.5294 55.1098 21.8994 54.7398C20.2194 54.3598 21.6394 45.1298 20.1194 44.3998C18.5994 43.6698 12.2494 50.4998 10.9194 49.4498C9.58938 48.3998 14.8594 40.6898 13.7994 39.3598C12.7394 38.0298 4.06938 41.4698 3.31938 39.9298C2.56938 38.3898 10.6694 33.7798 10.2894 32.0898C9.91938 30.4598 0.609375 29.7898 0.609375 28.0498C0.609375 26.3098 9.91938 25.6398 10.2894 24.0098C10.6694 22.3298 2.58938 17.6898 3.31938 16.1698C4.04938 14.6498 12.7394 18.0698 13.7994 16.7398C14.8594 15.4098 9.58938 7.71983 10.9194 6.64983C12.2394 5.58983 18.5694 12.4398 20.1194 11.6998C21.6394 10.9698 20.2194 1.73983 21.8994 1.35983C23.5294 0.989833 26.2494 9.90983 27.9894 9.90983C29.7294 9.90983 32.4694 0.999833 34.0994 1.36983C35.7794 1.74983 34.3594 10.9798 35.8794 11.7098C37.4194 12.4498 43.7494 5.60983 45.0794 6.65983C46.4094 7.71983 41.1394 15.4198 42.1994 16.7498C43.2594 18.0698 51.9294 14.6398 52.6794 16.1798C53.4094 17.6998 45.3294 22.3298 45.7094 24.0198C46.0794 25.6498 55.3894 26.3198 55.3894 28.0598L55.3694 28.0498Z" fill="#FFFF00" stroke="#FCD4A5" stroke-miterlimit="10"/>
</svg>
