<svg width="29" height="29" viewBox="0 0 29 29" fill="none" xmlns="http://www.w3.org/2000/svg">
<g id="&#237;&#153;&#148;&#236;&#158;&#165;&#236;&#139;&#164;">
<path id="Vector" d="M27.8134 10.5777C26.8034 7.57769 24.2034 5.55769 21.2634 5.15769C19.9234 2.51769 17.1634 0.717684 13.9934 0.747684C10.8234 0.777684 8.10339 2.62769 6.81339 5.29769C3.88339 5.75769 1.32339 7.82768 0.373393 10.8477C-0.576607 13.8677 0.343393 17.0277 2.48339 19.0777C2.01339 22.0077 3.18339 25.0777 5.76339 26.9177C8.34339 28.7577 11.6334 28.8577 14.2434 27.4577C16.8834 28.8077 20.1734 28.6477 22.7134 26.7577C25.2534 24.8677 26.3734 21.7777 25.8434 18.8577C27.9434 16.7677 28.8034 13.5877 27.7934 10.5877L27.8134 10.5777Z" fill="#FF64DE"/>
<path id="Vector_2" d="M10.3538 10.6777C11.3258 10.6777 12.1137 9.88973 12.1137 8.91771C12.1137 7.94569 11.3258 7.15771 10.3538 7.15771C9.38173 7.15771 8.59375 7.94569 8.59375 8.91771C8.59375 9.88973 9.38173 10.6777 10.3538 10.6777Z" fill="white"/>
<path id="Vector_3" d="M17.883 10.6777C18.8551 10.6777 19.643 9.88973 19.643 8.91771C19.643 7.94569 18.8551 7.15771 17.883 7.15771C16.911 7.15771 16.123 7.94569 16.123 8.91771C16.123 9.88973 16.911 10.6777 17.883 10.6777Z" fill="white"/>
<path id="Vector_4" d="M13.1632 11.7078H7.5332V17.6178H13.1632V11.7078Z" fill="white"/>
<path id="Vector_5" d="M20.7042 19.9678H15.0742L17.1942 11.7078H18.5842L20.7042 19.9678Z" fill="white"/>
<path id="Vector_6" d="M9.65375 17.3577H8.59375V23.6177H9.65375V17.3577Z" fill="white"/>
<path id="Vector_7" d="M12.1127 17.3577H11.0527V23.6177H12.1127V17.3577Z" fill="white"/>
<path id="Vector_8" d="M17.183 17.3577H16.123V23.6177H17.183V17.3577Z" fill="white"/>
<path id="Vector_9" d="M19.6537 17.3577H18.5938V23.6177H19.6537V17.3577Z" fill="white"/>
</g>
</svg>
