<svg width="29" height="28" viewBox="0 0 29 28" fill="none" xmlns="http://www.w3.org/2000/svg">
<g id="&#237;&#156;&#160;&#236;&#178;&#180;&#236;&#150;&#180;">
<path id="Vector" d="M27.8134 9.91216C26.8034 6.91216 24.2034 4.89215 21.2634 4.49215C19.9234 1.85214 17.1634 0.0521565 13.9934 0.0821565C10.8234 0.112157 8.10339 1.96214 6.81339 4.63214C3.88339 5.09214 1.32339 7.16215 0.373393 10.1821C-0.576607 13.2021 0.343393 16.3622 2.48339 18.4122C2.01339 21.3422 3.18339 24.4122 5.76339 26.2522C8.34339 28.0922 11.6334 28.1921 14.2434 26.7921C16.8834 28.1421 20.1734 27.9822 22.7134 26.0922C25.2534 24.2022 26.3734 21.1122 25.8434 18.1922C27.9434 16.1022 28.8034 12.9222 27.7934 9.92215L27.8134 9.91216Z" fill="#FF64DE"/>
<path id="Vector_2" d="M12.8031 22.7721C9.30313 22.7721 6.45312 19.7421 6.45312 16.0021C6.45312 13.7221 7.52313 11.6021 9.31313 10.3521C9.60313 10.1421 10.0131 10.2121 10.2231 10.5121C10.4331 10.8021 10.3631 11.2121 10.0631 11.4221C8.62313 12.4321 7.76313 14.1521 7.76313 16.0121C7.76313 19.0221 10.0231 21.4721 12.8131 21.4721C15.0331 21.4721 16.9631 19.9321 17.6331 17.6421C17.7331 17.3021 18.0931 17.1021 18.4431 17.2021C18.7831 17.3021 18.9831 17.6621 18.8831 18.0121C18.0531 20.8621 15.6231 22.7821 12.8231 22.7821L12.8031 22.7721Z" fill="white"/>
<path id="Vector_3" d="M12.9425 7.41211C13.8427 7.41211 14.5725 6.68233 14.5725 5.7821C14.5725 4.88188 13.8427 4.1521 12.9425 4.1521C12.0423 4.1521 11.3125 4.88188 11.3125 5.7821C11.3125 6.68233 12.0423 7.41211 12.9425 7.41211Z" fill="white"/>
<path id="Vector_4" d="M12.9442 7.6521C11.9142 7.6521 11.0742 6.8121 11.0742 5.7821C11.0742 4.7521 11.9142 3.91211 12.9442 3.91211C13.9742 3.91211 14.8142 4.7521 14.8142 5.7821C14.8142 6.8121 13.9742 7.6521 12.9442 7.6521ZM12.9442 4.3821C12.1742 4.3821 11.5442 5.0121 11.5442 5.7821C11.5442 6.5521 12.1742 7.1821 12.9442 7.1821C13.7142 7.1821 14.3442 6.5521 14.3442 5.7821C14.3442 5.0121 13.7142 4.3821 12.9442 4.3821Z" fill="white"/>
<path id="Vector_5" d="M11.3125 8.37207V16.1421H19.6625V21.1021H20.7525V14.8621H14.1225L14.1025 8.37207H11.3125Z" fill="white"/>
<path id="Vector_6" d="M20.994 21.3321H19.434V16.3821H11.084V8.14209H14.344L14.374 14.6321H21.004V21.3421L20.994 21.3321ZM19.904 20.8621H20.524V15.0921H13.894L13.864 8.60208H11.554V15.9021H19.904V20.8521V20.8621Z" fill="white"/>
</g>
</svg>
