<svg width="20" height="44" viewBox="0 0 20 44" fill="none" xmlns="http://www.w3.org/2000/svg">
<g id="Gift" clip-path="url(#clip0_42_62101)">
<circle id="Ellipse 11" cx="10" cy="22" r="7" fill="white"/>
<g id="Vector">
<path d="M10 15.4064V30V15.4064ZM10 15.4064C8.70233 14.5353 6.94054 14 5 14C3.05946 14 1.29766 14.5353 0 15.4064V30C1.29766 29.129 3.05946 28.5936 5 28.5936C6.94054 28.5936 8.70233 29.129 10 30M10 15.4064C11.2977 14.5353 13.0594 14 15 14C16.9406 14 18.7023 14.5353 20 15.4064V30C18.7023 29.129 16.9406 28.5936 15 28.5936C13.0594 28.5936 11.2977 29.129 10 30" fill="#FF64DE"/>
<path d="M10 15.4064V30M10 15.4064C8.70233 14.5353 6.94054 14 5 14C3.05946 14 1.29766 14.5353 0 15.4064V30C1.29766 29.129 3.05946 28.5936 5 28.5936C6.94054 28.5936 8.70233 29.129 10 30M10 15.4064C11.2977 14.5353 13.0594 14 15 14C16.9406 14 18.7023 14.5353 20 15.4064V30C18.7023 29.129 16.9406 28.5936 15 28.5936C13.0594 28.5936 11.2977 29.129 10 30" stroke="white" stroke-linecap="round" stroke-linejoin="round"/>
</g>
</g>
<defs>
<clipPath id="clip0_42_62101">
<rect width="20" height="44" fill="white"/>
</clipPath>
</defs>
</svg>
