<svg width="20" height="44" viewBox="0 0 20 44" fill="none" xmlns="http://www.w3.org/2000/svg">
<g id="Gift">
<circle id="Ellipse 11" cx="10" cy="23" r="7" fill="white"/>
<path id="Vector" d="M10 14.4064V29M10 14.4064C8.8321 13.5353 7.24649 13 5.5 13C3.75351 13 2.16789 13.5353 1 14.4064V29C2.16789 28.129 3.75351 27.5936 5.5 27.5936C7.24649 27.5936 8.8321 28.129 10 29M10 14.4064C11.1679 13.5353 12.7535 13 14.5 13C16.2465 13 17.8321 13.5353 19 14.4064V29C17.8321 28.129 16.2465 27.5936 14.5 27.5936C12.7535 27.5936 11.1679 28.129 10 29" stroke="#FF64DE" stroke-width="1.5" stroke-linecap="round" stroke-linejoin="round"/>
</g>
</svg>
