<svg width="20" height="44" viewBox="0 0 20 44" fill="none" xmlns="http://www.w3.org/2000/svg">
<g id="Gift">
<circle id="Ellipse 11" cx="10" cy="22" r="7" fill="white"/>
<g id="Map pin">
<path id="Pin" d="M15.3897 21.0628L15.3877 21.0756L15.3864 21.0884C15.1349 23.5007 13.7311 26.1304 12.3439 28.196C11.6562 29.2202 10.9842 30.0888 10.4842 30.7012C10.31 30.9145 10.1569 31.0965 10.0315 31.2429C9.93406 31.1291 9.81979 30.9937 9.69186 30.8388C9.25635 30.3113 8.6638 29.5589 8.0371 28.6605C6.77637 26.8533 5.4079 24.4982 4.87086 22.2162L4.8676 22.2024L4.86355 22.1887C4.62905 21.3974 4.5 20.5372 4.5 19.6364C4.5 15.576 7.06805 12.5 10 12.5C12.932 12.5 15.5 15.576 15.5 19.6364C15.5 20.1252 15.462 20.6022 15.3897 21.0628Z" stroke="#FF64DE"/>
<path id="Circle" d="M12.7148 19.2273C12.7148 17.8466 11.5956 16.7273 10.2148 16.7273C8.83413 16.7273 7.71484 17.8466 7.71484 19.2273C7.71484 20.608 8.83413 21.7273 10.2148 21.7273C11.5956 21.7273 12.7148 20.608 12.7148 19.2273Z" fill="#FF64DE"/>
</g>
</g>
</svg>
