<svg width="20" height="44" viewBox="0 0 20 44" fill="none" xmlns="http://www.w3.org/2000/svg">
<g id="Gift">
<circle id="Ellipse 11" cx="10" cy="22" r="7" fill="white"/>
<g id="Map pin">
<path id="Pin" fill-rule="evenodd" clip-rule="evenodd" d="M10 12C13.3137 12 16 15.4189 16 19.6364C16 20.1512 15.96 20.654 15.8837 21.1403C15.3541 26.2194 10.0315 32 10.0315 32C10.0315 32 5.50197 27.0806 4.38416 22.3308C4.13586 21.4929 4 20.5848 4 19.6364C4 15.4189 6.68629 12 10 12Z" fill="#FF64DE"/>
<path id="Circle" d="M12.7148 19.2273C12.7148 17.8466 11.5956 16.7273 10.2148 16.7273C8.83413 16.7273 7.71484 17.8466 7.71484 19.2273C7.71484 20.608 8.83413 21.7273 10.2148 21.7273C11.5956 21.7273 12.7148 20.608 12.7148 19.2273Z" fill="white"/>
</g>
</g>
</svg>
