<svg width="20" height="44" viewBox="0 0 20 44" fill="none" xmlns="http://www.w3.org/2000/svg">
<g id="Gift">
<circle id="Ellipse 11" cx="10" cy="22" r="7" fill="white"/>
<path id="Vector" d="M19.9996 19.2783C20.0185 18.22 19.3655 17.2492 18.3301 16.7957C18.2424 15.7943 17.3307 15.0264 16.2432 15.0378C16.0782 15.05 15.9156 15.0811 15.759 15.1303C15.6577 14.1126 14.6824 13.3635 13.5806 13.4571C13.1487 13.4938 12.7415 13.6589 12.42 13.9275C12.42 12.8629 11.4857 12 10.3331 12C9.18046 12 8.2462 12.8629 8.2462 13.9275C8.2462 13.9275 8.31298 13.9584 8.31298 14.0046C7.45919 13.3281 6.17333 13.4191 5.44091 14.2079C5.19365 14.4742 5.03188 14.7989 4.97395 15.1457C4.70966 15.0678 4.43319 15.0315 4.15588 15.0378C2.77285 15.0271 1.64226 16.054 1.63074 17.3314C1.6279 17.6395 1.69184 17.9448 1.81856 18.2298C0.495465 18.5713 -0.277354 19.839 0.0924441 21.0611C0.32651 21.8347 0.980961 22.4392 1.81856 22.6554C2.24145 23.8626 3.64401 24.5247 4.95107 24.1342C5.84477 23.8671 6.49938 23.1579 6.64346 22.3007C6.94898 22.546 7.3268 22.7018 7.72865 22.7479V30.458L4.97395 32H13.3215L10.6503 30.458V27.3739C11.8826 25.9992 13.4743 24.9377 15.2749 24.2899C16.6125 24.5796 17.9511 23.8131 18.2648 22.5778C18.3122 22.3911 18.3343 22.1995 18.3301 22.0077C18.3349 21.9255 18.3349 21.8432 18.3301 21.761C19.3655 21.3075 20.0185 20.3366 19.9996 19.2783ZM10.6503 26.2328V20.9283C11.1016 21.6695 11.95 22.1291 12.8708 22.1311H13.3382C13.3643 22.8082 13.7125 23.4402 14.2899 23.8581C12.928 24.4348 11.6939 25.2401 10.6503 26.2328Z" fill="#FF64DE"/>
</g>
</svg>
