<svg width="20" height="44" viewBox="0 0 20 44" fill="none" xmlns="http://www.w3.org/2000/svg">
<g id="Gift" clip-path="url(#clip0_42_62137)">
<circle id="Ellipse 11" cx="10" cy="22" r="7" fill="white"/>
<path id="Vector" d="M19.9996 19.9144C20.0175 18.909 19.3972 17.9867 18.4136 17.5559C18.3303 16.6046 17.4642 15.8751 16.431 15.8859C16.2743 15.8975 16.1198 15.9271 15.9711 15.9738C15.8748 15.0069 14.9482 14.2953 13.9016 14.3842C13.4913 14.4191 13.1045 14.576 12.799 14.8311C12.799 13.8198 11.9114 13 10.8164 13C9.72144 13 8.83389 13.8198 8.83389 14.8311C8.83389 14.8311 8.89733 14.8604 8.89733 14.9044C8.08623 14.2617 6.86466 14.3482 6.16886 15.0975C5.93397 15.3505 5.78028 15.659 5.72525 15.9884C5.47418 15.9145 5.21153 15.8799 4.94809 15.8859C3.63421 15.8758 2.56014 16.8513 2.5492 18.0648C2.5465 18.3575 2.60725 18.6476 2.72763 18.9183C1.47069 19.2428 0.736514 20.4471 1.08782 21.608C1.31018 22.343 1.93191 22.9172 2.72763 23.1226C3.12937 24.2695 4.46181 24.8985 5.70352 24.5274C6.55253 24.2737 7.17441 23.6 7.31129 22.7857C7.60154 23.0187 7.96046 23.1667 8.34222 23.2105V30.5351L5.72525 32H13.6555L11.1178 30.5351V27.6052C12.2884 26.2993 13.8006 25.2908 15.5111 24.6754C16.7819 24.9507 18.0535 24.2225 18.3516 23.0489C18.3966 22.8715 18.4175 22.6896 18.4136 22.5073C18.4182 22.4292 18.4182 22.351 18.4136 22.2729C19.3972 21.8421 20.0175 20.9198 19.9996 19.9144ZM11.1178 26.5212V21.4819C11.5465 22.1861 12.3525 22.6226 13.2272 22.6245H13.6713C13.6961 23.2678 14.0269 23.8682 14.5754 24.2652C13.2816 24.8131 12.1092 25.5781 11.1178 26.5212Z" stroke="#FF64DE" stroke-linejoin="round"/>
</g>
<defs>
<clipPath id="clip0_42_62137">
<rect width="20" height="44" fill="white"/>
</clipPath>
</defs>
</svg>
