<svg width="281" height="149" viewBox="0 0 281 149" fill="none" xmlns="http://www.w3.org/2000/svg">
<g clip-path="url(#clip0_42_45423)" filter="url(#filter0_i_42_45423)">
<path d="M85.2637 76.4039L172.128 127.662L274.133 68.9817L185.69 18.2695L85.2637 76.4039Z" fill="url(#paint0_radial_42_45423)" stroke="#FF64DE" stroke-width="0.5" stroke-linejoin="round"/>
<path d="M78.4497 141.085L64.5178 133.067L48.5229 142.278L0.818359 114.733L0.831094 107.894L77.2271 64.6172L154.031 109.15V116.04L108.364 142.265L92.5344 132.978L78.4497 141.085Z" fill="white" stroke="#FF64DE" stroke-width="0.5" stroke-linejoin="round"/>
<path d="M137.908 123.018L137.959 134.792L148.172 140.666L137.908 123.018Z" fill="#D3EEF3" stroke="#FF64DE" stroke-width="0.5" stroke-linejoin="round"/>
<path d="M124.256 130.821L137.908 123.018V126.989L124.345 135.046L124.256 130.821Z" fill="white" stroke="#FF64DE" stroke-width="0.5" stroke-linejoin="round"/>
<path d="M137.909 126.989L141.181 129.133L128.396 136.771L124.537 134.868L137.909 126.989Z" fill="white" stroke="#FF64DE" stroke-width="0.5" stroke-linejoin="round"/>
<path d="M127.656 136.987L141.206 129.159L141.257 133.054L127.873 140.933L127.656 136.987Z" fill="white" stroke="#FF64DE" stroke-width="0.5" stroke-linejoin="round"/>
<path d="M141.283 132.939L144.632 134.893L131.21 142.823L127.848 140.856L141.283 132.939Z" fill="white" stroke="#FF64DE" stroke-width="0.5" stroke-linejoin="round"/>
<path d="M131.107 142.747L144.67 134.919L144.721 138.814L131.337 146.693L131.107 142.747Z" fill="white" stroke="#FF64DE" stroke-width="0.5" stroke-linejoin="round"/>
<path d="M144.76 138.763L148.122 140.73L134.687 148.659L131.338 146.693L144.76 138.763Z" fill="white" stroke="#FF64DE" stroke-width="0.5" stroke-linejoin="round"/>
<path d="M124.256 130.821L124.294 142.595L134.507 148.469L124.256 130.821Z" fill="#D3EEF3" stroke="#FF64DE" stroke-width="0.5" stroke-linejoin="round"/>
<path d="M77.5584 45.7759L77.291 94.623L79.5705 94.6737L79.4177 45.852L78.5263 45.0146L77.5584 45.7759Z" fill="white" stroke="#FF64DE" stroke-width="0.5" stroke-linejoin="round"/>
<path d="M106.25 61.0139V79.3221L124.193 68.9817L108.288 59.8213L106.25 61.0139Z" fill="#D3EEF3" stroke="#FF64DE" stroke-width="0.5" stroke-linejoin="round"/>
<path d="M79.418 45.624L86.3966 90.982L100.316 99.2163L106.25 79.3222V61.014L79.418 45.624Z" fill="#05AED8" stroke="#FF64DE" stroke-width="0.5" stroke-linejoin="round"/>
<path d="M96.9023 97.4015L106.237 67.2432" stroke="#FF64DE" stroke-width="0.5" stroke-linejoin="round"/>
<path d="M93.9219 95.1812L104.785 60.0493" stroke="#FF64DE" stroke-width="0.5" stroke-linejoin="round"/>
<path d="M90.8789 93.5698L101.742 58.4507" stroke="#FF64DE" stroke-width="0.5" stroke-linejoin="round"/>
<path d="M87.8867 91.7812L98.775 56.5859" stroke="#FF64DE" stroke-width="0.5" stroke-linejoin="round"/>
<path d="M85.8359 86.9727L95.6927 55.0889" stroke="#FF64DE" stroke-width="0.5" stroke-linejoin="round"/>
<path d="M84.6016 79.5122L92.7391 53.2109" stroke="#FF64DE" stroke-width="0.5" stroke-linejoin="round"/>
<path d="M83.4805 71.6838L89.7715 51.3203" stroke="#FF64DE" stroke-width="0.5" stroke-linejoin="round"/>
<path d="M82.2441 64.211L86.6631 49.9121" stroke="#FF64DE" stroke-width="0.5" stroke-linejoin="round"/>
<path d="M81.0977 56.4587L83.6956 48.0723" stroke="#FF64DE" stroke-width="0.5" stroke-linejoin="round"/>
<path d="M80.0664 49.468L80.9578 46.5752" stroke="#FF64DE" stroke-width="0.5" stroke-linejoin="round"/>
<path d="M124.192 68.9814L106.249 79.3218L100.314 99.2159L144.097 73.5743L124.192 68.9814Z" fill="#C1EBF5" stroke="#FF64DE" stroke-width="0.5" stroke-linejoin="round"/>
<path d="M110.3 26.6685L126.155 35.8289L142.162 38.1634L105.957 58.7299L80.3477 43.8728L110.3 26.6685Z" fill="#C1EBF5" stroke="#FF64DE" stroke-width="0.5" stroke-linejoin="round"/>
<path d="M84.627 41.2847L110.211 56.1672" stroke="#FF64DE" stroke-width="0.5" stroke-linejoin="round"/>
<path d="M89.0078 38.7852L114.579 53.6677" stroke="#FF64DE" stroke-width="0.5" stroke-linejoin="round"/>
<path d="M93.3867 36.2856L118.958 51.1808" stroke="#FF64DE" stroke-width="0.5" stroke-linejoin="round"/>
<path d="M97.7559 33.7988L123.34 48.6813" stroke="#FF64DE" stroke-width="0.5" stroke-linejoin="round"/>
<path d="M102.137 31.2993L127.721 46.1818" stroke="#FF64DE" stroke-width="0.5" stroke-linejoin="round"/>
<path d="M106.518 28.8003L132.102 43.6828" stroke="#FF64DE" stroke-width="0.5" stroke-linejoin="round"/>
<path d="M127.721 36.0825L136.482 41.1829" stroke="#FF64DE" stroke-width="0.5" stroke-linejoin="round"/>
<path d="M46.6264 26.6558L30.6951 35.8289L14.6875 38.1634L50.8925 58.7299L76.5022 43.8728L46.6264 26.6558Z" fill="#05AED8" stroke="#FF64DE" stroke-width="0.5" stroke-linejoin="round"/>
<path d="M72.0178 41.2339L46.4336 56.1164" stroke="#FF64DE" stroke-width="0.5" stroke-linejoin="round"/>
<path d="M67.6379 38.7344L42.0664 53.6169" stroke="#FF64DE" stroke-width="0.5" stroke-linejoin="round"/>
<path d="M63.257 36.2349L37.6855 51.1174" stroke="#FF64DE" stroke-width="0.5" stroke-linejoin="round"/>
<path d="M58.8762 33.7354L33.3047 48.6178" stroke="#FF64DE" stroke-width="0.5" stroke-linejoin="round"/>
<path d="M54.508 31.2363L28.9238 46.1188" stroke="#FF64DE" stroke-width="0.5" stroke-linejoin="round"/>
<path d="M50.1272 28.7368L24.543 43.6193" stroke="#FF64DE" stroke-width="0.5" stroke-linejoin="round"/>
<path d="M29.1529 35.8926L20.1621 41.1198" stroke="#FF64DE" stroke-width="0.5" stroke-linejoin="round"/>
<path d="M106.249 61.0137L108.503 62.4601L108.286 78.1546L102.301 98.0486L100.314 99.2159L106.147 78.8016L106.249 61.0137Z" fill="white" stroke="#FF64DE" stroke-width="0.5" stroke-linejoin="round"/>
<path d="M108.287 59.8213L108.504 62.4603L122.015 70.2378L142.098 74.7545L144.097 73.5746L124.193 68.9817L108.287 59.8213Z" fill="white" stroke="#FF64DE" stroke-width="0.5" stroke-linejoin="round"/>
<path d="M50.6122 61.0139V79.3221L32.6816 68.9817L48.5747 59.8213L50.6122 61.0139Z" fill="#D3EEF3" stroke="#FF64DE" stroke-width="0.5" stroke-linejoin="round"/>
<path d="M77.4563 45.624L70.4649 90.982L56.5457 99.2163L50.6113 79.3222V61.014L77.4563 45.624Z" fill="#C1EBF5" stroke="#FF64DE" stroke-width="0.5" stroke-linejoin="round"/>
<path d="M59.9723 97.3385L50.6504 67.1802" stroke="#FF64DE" stroke-width="0.5" stroke-linejoin="round"/>
<path d="M62.9507 95.1055L52.0879 59.9863" stroke="#FF64DE" stroke-width="0.5" stroke-linejoin="round"/>
<path d="M65.9956 93.5068L55.1328 58.375" stroke="#FF64DE" stroke-width="0.5" stroke-linejoin="round"/>
<path d="M68.9879 91.705L58.0996 56.5098" stroke="#FF64DE" stroke-width="0.5" stroke-linejoin="round"/>
<path d="M71.0384 86.8965L61.1816 55.0127" stroke="#FF64DE" stroke-width="0.5" stroke-linejoin="round"/>
<path d="M72.2743 79.4361L64.1367 53.1348" stroke="#FF64DE" stroke-width="0.5" stroke-linejoin="round"/>
<path d="M73.3945 71.6077L67.1035 51.2568" stroke="#FF64DE" stroke-width="0.5" stroke-linejoin="round"/>
<path d="M74.6299 64.1475L70.2109 49.8486" stroke="#FF64DE" stroke-width="0.5" stroke-linejoin="round"/>
<path d="M75.7756 56.3958L73.1777 48.0093" stroke="#FF64DE" stroke-width="0.5" stroke-linejoin="round"/>
<path d="M76.8074 49.4045L75.916 46.499" stroke="#FF64DE" stroke-width="0.5" stroke-linejoin="round"/>
<path d="M32.6799 68.9814L50.6105 79.3218L56.5449 99.2159L12.7754 73.5743L32.6799 68.9814Z" fill="#05AED8" stroke="#FF64DE" stroke-width="0.5" stroke-linejoin="round"/>
<path d="M30.1469 71.3032L25.6133 79.1314" stroke="#FF64DE" stroke-width="0.5" stroke-linejoin="round"/>
<path d="M24.4806 72.5723L21.9336 76.9622" stroke="#FF64DE" stroke-width="0.5" stroke-linejoin="round"/>
<path d="M35.6598 70.6436L29.4707 81.3265" stroke="#FF64DE" stroke-width="0.5" stroke-linejoin="round"/>
<path d="M39.6082 72.9653L33.3809 83.7117" stroke="#FF64DE" stroke-width="0.5" stroke-linejoin="round"/>
<path d="M43.5683 75.249L37.3027 86.0588" stroke="#FF64DE" stroke-width="0.5" stroke-linejoin="round"/>
<path d="M47.5293 77.5332L41.2383 88.3811" stroke="#FF64DE" stroke-width="0.5" stroke-linejoin="round"/>
<path d="M49.9101 82.6333L45.2109 90.728" stroke="#FF64DE" stroke-width="0.5" stroke-linejoin="round"/>
<path d="M51.707 88.6475L49.2109 92.9485" stroke="#FF64DE" stroke-width="0.5" stroke-linejoin="round"/>
<path d="M126.65 71.3032L131.197 79.1314" stroke="#FF64DE" stroke-width="0.5" stroke-linejoin="round"/>
<path d="M132.318 72.5723L134.865 76.9622" stroke="#FF64DE" stroke-width="0.5" stroke-linejoin="round"/>
<path d="M121.137 70.6436L127.326 81.3265" stroke="#FF64DE" stroke-width="0.5" stroke-linejoin="round"/>
<path d="M117.189 72.9653L123.417 83.7117" stroke="#FF64DE" stroke-width="0.5" stroke-linejoin="round"/>
<path d="M113.229 75.249L119.494 86.0588" stroke="#FF64DE" stroke-width="0.5" stroke-linejoin="round"/>
<path d="M109.268 77.5332L115.559 88.3811" stroke="#FF64DE" stroke-width="0.5" stroke-linejoin="round"/>
<path d="M106.898 82.6333L111.585 90.728" stroke="#FF64DE" stroke-width="0.5" stroke-linejoin="round"/>
<path d="M105.092 88.6475L107.588 92.9485" stroke="#FF64DE" stroke-width="0.5" stroke-linejoin="round"/>
<path d="M50.6105 61.0137L48.3691 62.4601L48.5729 78.1546L54.5583 98.0486L56.5449 99.2159L50.7251 78.8016L50.6105 61.0137Z" fill="white" stroke="#FF64DE" stroke-width="0.5" stroke-linejoin="round"/>
<path d="M48.5729 59.8213L48.3691 62.4603L34.8575 70.2378L14.7748 74.7545L12.7754 73.5746L32.6799 68.9817L48.5729 59.8213Z" fill="white" stroke="#FF64DE" stroke-width="0.5" stroke-linejoin="round"/>
<path d="M79.418 45.8521L79.5708 94.6738L86.3966 90.9817L79.418 45.8521Z" fill="#C1EBF5" stroke="#FF64DE" stroke-width="0.5" stroke-linejoin="round"/>
<path d="M77.4563 45.8521L77.2907 94.623L70.4648 90.9817L77.4563 45.8521Z" fill="#05AED8" stroke="#FF64DE" stroke-width="0.5" stroke-linejoin="round"/>
<path d="M48.5996 25.3364L78.4754 42.7437L74.464 33.5199L54.5722 22.0757L48.5996 25.3364Z" fill="#C1EBF5" stroke="#FF64DE" stroke-width="0.5" stroke-linejoin="round"/>
<path d="M69.4082 30.5762L73.114 39.4955" stroke="#FF64DE" stroke-width="0.5" stroke-linejoin="round"/>
<path d="M64.5059 27.7471L68.2372 36.7172" stroke="#FF64DE" stroke-width="0.5" stroke-linejoin="round"/>
<path d="M59.6016 24.9175L63.3074 33.8241" stroke="#FF64DE" stroke-width="0.5" stroke-linejoin="round"/>
<path d="M54.6992 22.0884L58.3923 30.995" stroke="#FF64DE" stroke-width="0.5" stroke-linejoin="round"/>
<path d="M51.6172 23.6362L53.4892 28.153" stroke="#FF64DE" stroke-width="0.5" stroke-linejoin="round"/>
<path d="M108.287 25.514L78.4746 42.7437L82.4861 33.5199L102.378 22.0757L108.287 25.514Z" fill="#05AED8" stroke="#FF64DE" stroke-width="0.5" stroke-linejoin="round"/>
<path d="M87.4795 30.5762L83.6973 39.6858" stroke="#FF64DE" stroke-width="0.5" stroke-linejoin="round"/>
<path d="M92.3818 27.7471L88.5996 36.8567" stroke="#FF64DE" stroke-width="0.5" stroke-linejoin="round"/>
<path d="M97.2969 24.9175L93.502 34.0271" stroke="#FF64DE" stroke-width="0.5" stroke-linejoin="round"/>
<path d="M102.199 22.0884L98.4043 31.198" stroke="#FF64DE" stroke-width="0.5" stroke-linejoin="round"/>
<path d="M105.281 23.6362L103.32 28.3687" stroke="#FF64DE" stroke-width="0.5" stroke-linejoin="round"/>
<path d="M78.4746 42.7439L82.4861 33.52L78.4746 35.8292V42.7439Z" fill="#05AED8" stroke="#FF64DE" stroke-width="0.5" stroke-linejoin="round"/>
<path d="M78.4743 35.8292L74.4629 33.52L78.4743 42.7439V35.8292Z" fill="#C1EBF5" stroke="#FF64DE" stroke-width="0.5" stroke-linejoin="round"/>
<path d="M108.25 25.5396L112.249 23.2178L136.903 37.3898L126.155 35.8292L108.25 25.5396Z" fill="#C1EBF5" stroke="#FF64DE" stroke-width="0.5" stroke-linejoin="round"/>
<path d="M20.4434 37.3261L42.6274 24.3594L46.6261 26.6558L30.6949 35.8289L20.4434 37.3261Z" fill="#05AED8" stroke="#FF64DE" stroke-width="0.5" stroke-linejoin="round"/>
<path d="M106.453 58.8062L104.301 57.5121L142.098 35.8037L142.161 38.1636L106.453 58.8062Z" fill="white" stroke="#FF64DE" stroke-width="0.5" stroke-linejoin="round"/>
<path d="M14.6875 38.1634L14.7894 35.5117L53.032 57.2074L50.6124 58.565L14.6875 38.1634Z" fill="white" stroke="#FF64DE" stroke-width="0.5" stroke-linejoin="round"/>
<path d="M48.5488 59.7704L78.4756 42.6675L110.262 24.3848V26.6558L50.5227 60.9249L48.5488 59.7704Z" fill="white" stroke="#FF64DE" stroke-width="0.5" stroke-linejoin="round"/>
<path d="M46.6133 24.1816L46.626 26.6557L106.25 61.0136L108.288 59.821L46.6133 24.1816Z" fill="white" stroke="#FF64DE" stroke-width="0.5" stroke-linejoin="round"/>
<path d="M85.9766 88.2412L100.914 97.224L100.316 99.2159L86.3968 90.9817L85.9766 88.2412Z" fill="white" stroke="#FF64DE" stroke-width="0.5" stroke-linejoin="round"/>
<path d="M79.5703 94.674L79.7104 92.1365L86.1033 88.584L86.3962 90.9819L79.5703 94.674Z" fill="white" stroke="#FF64DE" stroke-width="0.5" stroke-linejoin="round"/>
<path d="M77.2907 94.6232L70.4648 90.9819L70.796 88.4951L77.2907 92.3648V94.6232Z" fill="white" stroke="#FF64DE" stroke-width="0.5" stroke-linejoin="round"/>
<path d="M56.546 99.2161L55.8711 96.8562L70.7963 88.4951L70.4652 90.9819L56.546 99.2161Z" fill="white" stroke="#FF64DE" stroke-width="0.5" stroke-linejoin="round"/>
<path d="M103.105 95.3845L139.705 74.209L142.099 74.7545L102.303 98.0489L103.105 95.3845Z" fill="white" stroke="#FF64DE" stroke-width="0.5" stroke-linejoin="round"/>
<path d="M17.2841 74.1836L53.7566 95.7905L54.5589 98.0489L14.7754 74.7545L17.2841 74.1836Z" fill="white" stroke="#FF64DE" stroke-width="0.5" stroke-linejoin="round"/>
<path d="M138.112 40.5107L134.126 49.5316L112.286 62.1176L106.453 58.8062L138.112 40.5107Z" fill="#C1EBF5" stroke="#FF64DE" stroke-width="0.5" stroke-linejoin="round"/>
<path d="M18.4688 40.3203L22.7349 49.5569L44.6006 62.1048L50.6114 58.565L18.4688 40.3203Z" fill="#05AED8" stroke="#FF64DE" stroke-width="0.5" stroke-linejoin="round"/>
<path d="M130.153 51.8789V70.3647L128.166 69.9079V53.0588L130.153 51.8789Z" fill="white" stroke="#FF64DE" stroke-width="0.5" stroke-linejoin="round"/>
<path d="M24.7726 50.6733L24.7344 70.8212L26.721 70.3644V51.9167L24.7726 50.6733Z" fill="url(#paint1_radial_42_45423)" stroke="#FF64DE" stroke-width="0.5" stroke-linejoin="round"/>
<path d="M136.214 78.1929V112.513L134.139 113.629V79.4109L136.214 78.1929Z" fill="url(#paint2_radial_42_45423)" stroke="#FF64DE" stroke-width="0.5" stroke-linejoin="round"/>
<path d="M108.364 94.5088L108.339 128.562L106.25 129.679V95.7775L108.364 94.5088Z" fill="url(#paint3_radial_42_45423)" stroke="#FF64DE" stroke-width="0.5" stroke-linejoin="round"/>
<path d="M20.6602 78.2056V112.538L22.7359 113.655V79.4236L20.6602 78.2056Z" fill="url(#paint4_radial_42_45423)" stroke="#FF64DE" stroke-width="0.5" stroke-linejoin="round"/>
<path d="M48.5098 94.5215L48.5352 128.588L50.611 129.691V95.7902L48.5098 94.5215Z" fill="url(#paint5_radial_42_45423)" stroke="#FF64DE" stroke-width="0.5" stroke-linejoin="round"/>
<path d="M76.4512 94.1792L76.4639 123.919L78.4378 125.073V94.674L77.2917 94.6233L76.4512 94.1792Z" fill="url(#paint6_radial_42_45423)" stroke="#FF64DE" stroke-width="0.5" stroke-linejoin="round"/>
<path d="M80.4241 123.932L78.4375 125.073V94.674H79.5709L80.4751 94.1919L80.4241 123.932Z" fill="url(#paint7_radial_42_45423)" stroke="#FF64DE" stroke-width="0.5" stroke-linejoin="round"/>
<path d="M50.6113 129.692V95.7905L52.5725 96.8943L52.598 128.499L50.6113 129.692Z" fill="url(#paint8_radial_42_45423)" stroke="#FF64DE" stroke-width="0.5" stroke-linejoin="round"/>
<path d="M66.5039 93.3291L66.5166 118.197L68.4141 119.402L70.4644 118.184V90.9819L66.5039 93.3291Z" fill="url(#paint9_radial_42_45423)" stroke="#FF64DE" stroke-width="0.5" stroke-linejoin="round"/>
<path d="M68.4905 92.1619L68.4141 119.402L70.4644 118.184V90.9819L68.4905 92.1619Z" fill="url(#paint10_radial_42_45423)" stroke="#FF64DE" stroke-width="0.5" stroke-linejoin="round"/>
<path d="M90.4332 93.3291L90.4204 118.197L88.523 119.402L86.4727 118.184V90.9819L90.4332 93.3291Z" fill="url(#paint11_radial_42_45423)" stroke="#FF64DE" stroke-width="0.5" stroke-linejoin="round"/>
<path d="M88.4593 92.1619L88.523 119.402L86.4727 118.184V90.9819L88.4593 92.1619Z" fill="url(#paint12_radial_42_45423)" stroke="#FF64DE" stroke-width="0.5" stroke-linejoin="round"/>
<path d="M52.5977 126.203L66.5169 118.197L66.5041 93.3291L56.5455 99.2161L52.5723 96.8943L52.5977 126.203Z" fill="white" stroke="#FF64DE" stroke-width="0.5" stroke-linejoin="round"/>
<path d="M70.4648 90.9819V118.184L76.4629 121.61L76.4502 94.1792L70.4648 90.9819Z" fill="#D3EEF3" stroke="#FF64DE" stroke-width="0.5" stroke-linejoin="round"/>
<path d="M80.4739 94.1919L80.3848 121.737L86.472 118.184V90.9819L80.4739 94.1919Z" fill="white" stroke="#FF64DE" stroke-width="0.5" stroke-linejoin="round"/>
<path d="M90.4327 93.3291L90.4199 118.197L104.415 126.317L104.301 96.907L100.315 99.2161L90.4327 93.3291Z" fill="#D3EEF3" stroke="#FF64DE" stroke-width="0.5" stroke-linejoin="round"/>
<path d="M106.249 129.679L104.301 128.512V96.907L106.249 95.7778V129.679Z" fill="url(#paint13_radial_42_45423)" stroke="#FF64DE" stroke-width="0.5" stroke-linejoin="round"/>
<path d="M108.363 126.165L132.165 112.475L132.114 80.5908L108.363 94.5091V126.165Z" fill="white" stroke="#FF64DE" stroke-width="0.5" stroke-linejoin="round"/>
<path d="M22.7344 113.654L24.7337 112.462V80.5779L22.7344 79.4233V113.654Z" fill="url(#paint14_radial_42_45423)" stroke="#FF64DE" stroke-width="0.5" stroke-linejoin="round"/>
<path d="M48.5102 126.203L24.7344 112.462V80.5781L48.5102 94.5217V126.203Z" fill="white" stroke="#FF64DE" stroke-width="0.5" stroke-linejoin="round"/>
<path d="M134.138 79.4106L132.113 80.5906L132.164 112.474L134.138 113.629V79.4106Z" fill="url(#paint15_radial_42_45423)" stroke="#FF64DE" stroke-width="0.5" stroke-linejoin="round"/>
<path d="M128.165 53.0586L116.653 59.6054L112.285 62.1175L114.679 63.5258L124.192 68.9815L128.165 69.9077V53.0586Z" fill="white" stroke="#FF64DE" stroke-width="0.5" stroke-linejoin="round"/>
<path d="M26.7207 51.917V70.3647L32.6806 68.9818L42.4482 63.3485L44.6004 62.1051L40.6144 59.8213L26.7207 51.917Z" fill="#D3EEF3" stroke="#FF64DE" stroke-width="0.5" stroke-linejoin="round"/>
<path d="M48.3691 135.185L64.5169 126.165L78.436 134.196L92.3933 126.165L108.274 135.185L124.192 126.19V133.079L108.363 142.265L92.5334 132.978L78.4487 141.085L64.5169 133.067L48.522 142.278L48.3691 135.185Z" fill="white" stroke="#FF64DE" stroke-width="0.5" stroke-linejoin="round"/>
<path d="M108.363 94.5087V126.164L120.831 118.97V87.2007L108.363 94.5087Z" fill="white" stroke="#FF64DE" stroke-width="0.5" stroke-linejoin="round"/>
<path d="M132.166 112.475L121.176 118.755V86.998L132.115 80.5908L132.166 112.475Z" fill="white" stroke="#FF64DE" stroke-width="0.5" stroke-linejoin="round"/>
<path d="M114.374 90.9819V122.688L108.363 126.165V94.5091L114.374 90.9819Z" fill="white" stroke="#FF64DE" stroke-width="0.5" stroke-linejoin="round"/>
<path d="M120.258 87.5687V119.326L126.154 115.963V84.105L120.258 87.5687Z" fill="white" stroke="#FF64DE" stroke-width="0.5" stroke-linejoin="round"/>
<path d="M48.5748 94.5087V126.164L36.1074 118.97V87.2007L48.5748 94.5087Z" fill="#D3EEF3" stroke="#FF64DE" stroke-width="0.5" stroke-linejoin="round"/>
<path d="M24.7734 112.475L35.7636 118.755V86.998L24.8244 80.5908L24.7734 112.475Z" fill="#D3EEF3" stroke="#FF64DE" stroke-width="0.5" stroke-linejoin="round"/>
<path d="M42.5625 90.9819V122.688L48.5733 126.165V94.5091L42.5625 90.9819Z" fill="#D3EEF3" stroke="#FF64DE" stroke-width="0.5" stroke-linejoin="round"/>
<path d="M36.615 87.5179V119.275L30.6934 115.875L30.8462 84.105L36.615 87.5179Z" fill="#D3EEF3" stroke="#FF64DE" stroke-width="0.5" stroke-linejoin="round"/>
<path d="M26.3398 70.3646L32.6818 68.9816L37.6738 66.1396V58.1464L26.3908 51.6885L26.3398 70.3646Z" fill="#D3EEF3" stroke="#FF64DE" stroke-width="0.5" stroke-linejoin="round"/>
<path d="M37.6738 58.1464V66.1396L32.6818 68.9816L31.7012 69.2099V54.8096L37.6738 58.1464Z" stroke="#FF64DE" stroke-width="0.5" stroke-linejoin="round"/>
<path d="M130.687 70.3391L124.346 68.9689L119.354 66.1269V58.0449L130.637 51.5869L130.687 70.3391Z" fill="white" stroke="#FF64DE" stroke-width="0.5" stroke-linejoin="round"/>
<path d="M119.354 58.0448V66.1268L124.346 68.9688L125.326 69.1972V54.6699L119.354 58.0448Z" stroke="#FF64DE" stroke-width="0.5" stroke-linejoin="round"/>
<path d="M59.8432 122.028V97.3384L56.5449 99.2161V123.906L59.8432 122.028Z" fill="white" stroke="#FF64DE" stroke-width="0.5" stroke-linejoin="round"/>
<path d="M66.6323 118.095V93.2529L63.334 95.2829V119.973L66.6323 118.095Z" fill="white" stroke="#FF64DE" stroke-width="0.5" stroke-linejoin="round"/>
<path d="M97.043 122.028V97.3384L100.354 99.2161V123.906L97.043 122.028Z" fill="#D3EEF3" stroke="#FF64DE" stroke-width="0.5" stroke-linejoin="round"/>
<path d="M90.2676 118.095V93.2529L93.5659 95.2829V119.973L90.2676 118.095Z" fill="#D3EEF3" stroke="#FF64DE" stroke-width="0.5" stroke-linejoin="round"/>
<path d="M73.293 92.4917V119.973" stroke="#FF64DE" stroke-width="0.5" stroke-linejoin="round"/>
<path d="M83.6328 92.4917V119.973" stroke="#FF64DE" stroke-width="0.5" stroke-linejoin="round"/>
<path d="M130.637 51.5869L130.688 70.3391L132.139 70.8212V50.6987L130.637 51.5869Z" fill="url(#paint16_radial_42_45423)" stroke="#FF64DE" stroke-width="0.5" stroke-linejoin="round"/>
<path d="M106.25 61.0137V57.5881L107.192 55.52L108.288 56.7126V59.8211L106.25 61.0137Z" fill="url(#paint17_radial_42_45423)" stroke="#FF64DE" stroke-width="0.5" stroke-linejoin="round"/>
<path d="M50.6372 61.0137V57.5881L49.7075 55.52L48.5996 56.7126V59.8211L50.6372 61.0137Z" fill="url(#paint18_radial_42_45423)" stroke="#FF64DE" stroke-width="0.5" stroke-linejoin="round"/>
<path d="M108.364 142.265V146.807L107.154 146.134V141.554L108.364 142.265Z" fill="#D3EEF3" stroke="#FF64DE" stroke-width="0.5" stroke-linejoin="round"/>
<path d="M108.363 142.265V146.807L109.573 146.134V141.554L108.363 142.265Z" fill="white" stroke="#FF64DE" stroke-width="0.5" stroke-linejoin="round"/>
<path d="M152.821 116.839V121.381L151.611 120.696V116.116L152.821 116.839Z" fill="#D3EEF3" stroke="#FF64DE" stroke-width="0.5" stroke-linejoin="round"/>
<path d="M152.82 116.839V121.381L154.03 120.696V116.116L152.82 116.839Z" fill="white" stroke="#FF64DE" stroke-width="0.5" stroke-linejoin="round"/>
<path d="M78.4364 141.136V145.678L77.2266 144.993V140.425L78.4364 141.136Z" fill="#D3EEF3" stroke="#FF64DE" stroke-width="0.5" stroke-linejoin="round"/>
<path d="M78.4375 141.136V145.678L79.6473 144.993V140.425L78.4375 141.136Z" fill="white" stroke="#FF64DE" stroke-width="0.5" stroke-linejoin="round"/>
<path d="M48.5223 142.227V146.769L47.3125 146.084V141.503L48.5223 142.227Z" fill="#D3EEF3" stroke="#FF64DE" stroke-width="0.5" stroke-linejoin="round"/>
<path d="M48.5234 142.227V146.769L49.7332 146.084V141.592L48.5234 142.227Z" fill="white" stroke="#FF64DE" stroke-width="0.5" stroke-linejoin="round"/>
<path d="M2.04184 115.329V119.871L0.832031 119.199V114.619L2.04184 115.329Z" fill="#D3EEF3" stroke="#FF64DE" stroke-width="0.5" stroke-linejoin="round"/>
<path d="M2.04102 115.329V119.871L3.25082 119.199V114.695L2.04102 115.329Z" fill="white" stroke="#FF64DE" stroke-width="0.5" stroke-linejoin="round"/>
<path d="M37.3555 95.2446V99.2158V110.66L41.9655 113.02V97.9725L37.3555 95.2446Z" fill="#D3EEF3" stroke="#FF64DE" stroke-width="0.5" stroke-linejoin="round"/>
<path d="M41.9655 100.815L37.3555 98.1631" stroke="#FF64DE" stroke-width="0.5" stroke-linejoin="round"/>
<path d="M41.9655 104.063L37.3555 101.411" stroke="#FF64DE" stroke-width="0.5" stroke-linejoin="round"/>
<path d="M41.9655 107.311L37.3555 104.646" stroke="#FF64DE" stroke-width="0.5" stroke-linejoin="round"/>
<path d="M41.9655 110.546L37.3555 107.895" stroke="#FF64DE" stroke-width="0.5" stroke-linejoin="round"/>
<path d="M43.2637 98.4165V102.388V113.832L47.8737 116.192V101.144L43.2637 98.4165Z" fill="#D3EEF3" stroke="#FF64DE" stroke-width="0.5" stroke-linejoin="round"/>
<path d="M47.8737 103.987L43.2637 101.335" stroke="#FF64DE" stroke-width="0.5" stroke-linejoin="round"/>
<path d="M47.8737 107.235L43.2637 104.583" stroke="#FF64DE" stroke-width="0.5" stroke-linejoin="round"/>
<path d="M47.8737 110.483L43.2637 107.831" stroke="#FF64DE" stroke-width="0.5" stroke-linejoin="round"/>
<path d="M47.8737 113.731L43.2637 111.079" stroke="#FF64DE" stroke-width="0.5" stroke-linejoin="round"/>
<path d="M113.674 98.4165V102.388V113.832L109.064 116.192V101.144L113.674 98.4165Z" fill="white" stroke="#FF64DE" stroke-width="0.5" stroke-linejoin="round"/>
<path d="M109.064 103.987L113.674 101.335" stroke="#FF64DE" stroke-width="0.5" stroke-linejoin="round"/>
<path d="M109.064 107.235L113.674 104.583" stroke="#FF64DE" stroke-width="0.5" stroke-linejoin="round"/>
<path d="M109.064 110.483L113.674 107.831" stroke="#FF64DE" stroke-width="0.5" stroke-linejoin="round"/>
<path d="M109.064 113.731L113.674 111.079" stroke="#FF64DE" stroke-width="0.5" stroke-linejoin="round"/>
<path d="M119.622 95.1812V99.1524V110.597L115.012 112.944V97.909L119.622 95.1812Z" fill="white" stroke="#FF64DE" stroke-width="0.5" stroke-linejoin="round"/>
<path d="M115.012 100.751L119.622 98.0996" stroke="#FF64DE" stroke-width="0.5" stroke-linejoin="round"/>
<path d="M115.012 103.999L119.622 101.348" stroke="#FF64DE" stroke-width="0.5" stroke-linejoin="round"/>
<path d="M115.012 107.247L119.622 104.583" stroke="#FF64DE" stroke-width="0.5" stroke-linejoin="round"/>
<path d="M115.012 110.483L119.622 107.831" stroke="#FF64DE" stroke-width="0.5" stroke-linejoin="round"/>
<path d="M125.518 92.0093V95.9805V107.425L120.908 109.772V94.7244L125.518 92.0093Z" fill="white" stroke="#FF64DE" stroke-width="0.5" stroke-linejoin="round"/>
<path d="M120.908 97.5794L125.518 94.9277" stroke="#FF64DE" stroke-width="0.5" stroke-linejoin="round"/>
<path d="M120.908 100.815L125.518 98.1631" stroke="#FF64DE" stroke-width="0.5" stroke-linejoin="round"/>
<path d="M120.908 104.063L125.518 101.411" stroke="#FF64DE" stroke-width="0.5" stroke-linejoin="round"/>
<path d="M120.908 107.311L125.518 104.659" stroke="#FF64DE" stroke-width="0.5" stroke-linejoin="round"/>
<path d="M131.44 88.6855V92.6694V104.101L126.83 106.461V91.4134L131.44 88.6855Z" fill="white" stroke="#FF64DE" stroke-width="0.5" stroke-linejoin="round"/>
<path d="M126.83 94.2552L131.44 91.6035" stroke="#FF64DE" stroke-width="0.5" stroke-linejoin="round"/>
<path d="M126.83 97.5033L131.44 94.8516" stroke="#FF64DE" stroke-width="0.5" stroke-linejoin="round"/>
<path d="M126.83 100.751L131.44 98.0996" stroke="#FF64DE" stroke-width="0.5" stroke-linejoin="round"/>
<path d="M126.83 103.999L131.44 101.348" stroke="#FF64DE" stroke-width="0.5" stroke-linejoin="round"/>
<path d="M31.4453 91.7939V95.7652V107.209L36.0553 109.557V94.5091L31.4453 91.7939Z" fill="#D3EEF3" stroke="#FF64DE" stroke-width="0.5" stroke-linejoin="round"/>
<path d="M36.0553 97.3509L31.4453 94.6992" stroke="#FF64DE" stroke-width="0.5" stroke-linejoin="round"/>
<path d="M36.0553 100.599L31.4453 97.9473" stroke="#FF64DE" stroke-width="0.5" stroke-linejoin="round"/>
<path d="M36.0553 103.847L31.4453 101.195" stroke="#FF64DE" stroke-width="0.5" stroke-linejoin="round"/>
<path d="M36.0553 107.095L31.4453 104.443" stroke="#FF64DE" stroke-width="0.5" stroke-linejoin="round"/>
<path d="M25.5234 88.5967V92.5679V104.012L30.1462 106.359V91.3118L25.5234 88.5967Z" fill="#D3EEF3" stroke="#FF64DE" stroke-width="0.5" stroke-linejoin="round"/>
<path d="M30.1462 94.1536L25.5234 91.502" stroke="#FF64DE" stroke-width="0.5" stroke-linejoin="round"/>
<path d="M30.1462 97.4017L25.5234 94.75" stroke="#FF64DE" stroke-width="0.5" stroke-linejoin="round"/>
<path d="M30.1462 100.65L25.5234 97.998" stroke="#FF64DE" stroke-width="0.5" stroke-linejoin="round"/>
<path d="M30.1462 103.898L25.5234 101.246" stroke="#FF64DE" stroke-width="0.5" stroke-linejoin="round"/>
<path d="M78.4367 134.221V141.123L64.5176 133.067V126.165L78.4367 134.221Z" fill="#D3EEF3" stroke="#FF64DE" stroke-width="0.5" stroke-linejoin="round"/>
<path d="M0.818359 114.733L48.5229 142.227" stroke="#FF64DE" stroke-width="0.5" stroke-linejoin="round"/>
<path d="M92.3945 126.165L92.5346 132.978L108.364 142.214V135.325L92.3945 126.165Z" fill="#D3EEF3" stroke="#FF64DE" stroke-width="0.5" stroke-linejoin="round"/>
<path d="M15.0304 122.917L0.818359 114.733L0.831094 107.895L15.0049 116.027L15.0304 122.917Z" fill="#D3EEF3" stroke="#FF64DE" stroke-width="0.5" stroke-linejoin="round"/>
<path d="M28.6562 123.881L48.3697 135.185L48.5225 142.227L28.6562 130.77V123.881Z" fill="#D3EEF3" stroke="#FF64DE" stroke-width="0.5" stroke-linejoin="round"/>
<path d="M137.908 123.018V118.438L154.03 109.15V116.04L138.851 124.642L137.908 123.018Z" fill="white" stroke="#FF64DE" stroke-width="0.5" stroke-linejoin="round"/>
<path d="M15.0054 122.967L14.9672 134.741L4.75391 140.616L15.0054 122.967Z" fill="#D3EEF3" stroke="#FF64DE" stroke-width="0.5" stroke-linejoin="round"/>
<path d="M28.6576 130.77L15.0059 122.967V126.926L28.5812 134.982L28.6576 130.77Z" fill="#D3EEF3" stroke="#FF64DE" stroke-width="0.5" stroke-linejoin="round"/>
<path d="M15.0053 126.926L11.7324 129.083L24.5182 136.721L28.3768 134.805L15.0053 126.926Z" fill="#D3EEF3" stroke="#FF64DE" stroke-width="0.5" stroke-linejoin="round"/>
<path d="M25.2697 136.923L11.7072 129.108L11.6562 133.003L25.0405 140.869L25.2697 136.923Z" fill="#D3EEF3" stroke="#FF64DE" stroke-width="0.5" stroke-linejoin="round"/>
<path d="M11.6432 132.876L8.28125 134.843L21.7165 142.76L25.0657 140.793L11.6432 132.876Z" fill="#D3EEF3" stroke="#FF64DE" stroke-width="0.5" stroke-linejoin="round"/>
<path d="M21.8058 142.684L8.25602 134.855L8.20508 138.763L21.5893 146.63L21.8058 142.684Z" fill="#D3EEF3" stroke="#FF64DE" stroke-width="0.5" stroke-linejoin="round"/>
<path d="M8.15394 138.712L4.80469 140.679L18.2272 148.596L21.5892 146.629L8.15394 138.712Z" fill="#D3EEF3" stroke="#FF64DE" stroke-width="0.5" stroke-linejoin="round"/>
<path d="M28.6558 130.77L28.6176 142.531L18.4043 148.406L28.6558 130.77Z" fill="white" stroke="#FF64DE" stroke-width="0.5" stroke-linejoin="round"/>
<path d="M0.832031 107.894L20.6219 96.5391V103.403L6.88106 111.358L0.832031 107.894Z" fill="white" stroke="#FF64DE" stroke-width="0.5" stroke-linejoin="round"/>
<path d="M148.121 112.563L136.24 105.547L136.125 98.8735L154.03 109.15L148.121 112.563Z" fill="#D3EEF3" stroke="#FF64DE" stroke-width="0.5" stroke-linejoin="round"/>
<path d="M77.3535 86.2114L71.9922 89.1676" stroke="#FF64DE" stroke-width="0.5" stroke-linejoin="round"/>
<path d="M77.3155 89.9033L75.0996 91.134" stroke="#FF64DE" stroke-width="0.5" stroke-linejoin="round"/>
<path d="M77.354 82.811L70.8848 86.3889" stroke="#FF64DE" stroke-width="0.5" stroke-linejoin="round"/>
<path d="M77.4811 79.4106L71.5977 82.6587" stroke="#FF64DE" stroke-width="0.5" stroke-linejoin="round"/>
<path d="M77.3806 75.9976L72.0957 78.9157" stroke="#FF64DE" stroke-width="0.5" stroke-linejoin="round"/>
<path d="M77.3284 72.6484L72.8457 75.1225" stroke="#FF64DE" stroke-width="0.5" stroke-linejoin="round"/>
<path d="M77.4697 69.1846L73.3945 71.443" stroke="#FF64DE" stroke-width="0.5" stroke-linejoin="round"/>
<path d="M77.5201 65.7334L73.8652 67.7507" stroke="#FF64DE" stroke-width="0.5" stroke-linejoin="round"/>
<path d="M77.2904 62.4473L74.6543 63.9063" stroke="#FF64DE" stroke-width="0.5" stroke-linejoin="round"/>
<path d="M77.4684 58.9331L75.0742 60.2653" stroke="#FF64DE" stroke-width="0.5" stroke-linejoin="round"/>
<path d="M77.4695 55.52L75.6484 56.535" stroke="#FF64DE" stroke-width="0.5" stroke-linejoin="round"/>
<path d="M77.5203 52.1323L76.3359 52.7794" stroke="#FF64DE" stroke-width="0.5" stroke-linejoin="round"/>
<path d="M79.5059 86.2622L84.8672 89.2311" stroke="#FF64DE" stroke-width="0.5" stroke-linejoin="round"/>
<path d="M79.5586 89.9668L81.5962 91.096" stroke="#FF64DE" stroke-width="0.5" stroke-linejoin="round"/>
<path d="M79.5059 82.8745L85.9751 86.4397" stroke="#FF64DE" stroke-width="0.5" stroke-linejoin="round"/>
<path d="M79.3789 79.4614L85.2624 82.7094" stroke="#FF64DE" stroke-width="0.5" stroke-linejoin="round"/>
<path d="M79.4941 76.061L84.7663 78.9792" stroke="#FF64DE" stroke-width="0.5" stroke-linejoin="round"/>
<path d="M79.5449 72.6992L84.0148 75.186" stroke="#FF64DE" stroke-width="0.5" stroke-linejoin="round"/>
<path d="M79.3926 69.248L83.4677 71.4937" stroke="#FF64DE" stroke-width="0.5" stroke-linejoin="round"/>
<path d="M79.3418 65.7969L82.9967 67.8142" stroke="#FF64DE" stroke-width="0.5" stroke-linejoin="round"/>
<path d="M79.5703 62.498L82.2064 63.9571" stroke="#FF64DE" stroke-width="0.5" stroke-linejoin="round"/>
<path d="M79.3926 58.9966L81.7867 60.3161" stroke="#FF64DE" stroke-width="0.5" stroke-linejoin="round"/>
<path d="M79.3926 55.5835L81.2137 56.5858" stroke="#FF64DE" stroke-width="0.5" stroke-linejoin="round"/>
<path d="M79.3418 52.1831L80.5261 52.8429" stroke="#FF64DE" stroke-width="0.5" stroke-linejoin="round"/>
<path d="M78.4758 35.8291L78.4375 42.7438" stroke="#FF64DE" stroke-width="0.5" stroke-linejoin="round"/>
<path d="M111.521 27.4297L115.546 25.1206" stroke="#FF64DE" stroke-width="0.5" stroke-linejoin="round"/>
<path d="M115.113 29.3711L119.137 27.062" stroke="#FF64DE" stroke-width="0.5" stroke-linejoin="round"/>
<path d="M118.59 31.3755L122.614 29.0537" stroke="#FF64DE" stroke-width="0.5" stroke-linejoin="round"/>
<path d="M122.066 33.3804L126.091 31.0586" stroke="#FF64DE" stroke-width="0.5" stroke-linejoin="round"/>
<path d="M125.543 35.3848L129.567 33.063" stroke="#FF64DE" stroke-width="0.5" stroke-linejoin="round"/>
<path d="M130.572 36.5016L133.043 35.0679" stroke="#FF64DE" stroke-width="0.5" stroke-linejoin="round"/>
<path d="M43.8113 28.3687L39.7871 26.0596" stroke="#FF64DE" stroke-width="0.5" stroke-linejoin="round"/>
<path d="M40.3347 30.3736L36.3105 28.0518" stroke="#FF64DE" stroke-width="0.5" stroke-linejoin="round"/>
<path d="M36.8582 32.378L32.834 30.0562" stroke="#FF64DE" stroke-width="0.5" stroke-linejoin="round"/>
<path d="M33.3689 34.3824L29.3574 32.0605" stroke="#FF64DE" stroke-width="0.5" stroke-linejoin="round"/>
<path d="M29.2801 36.032L25.8672 34.0654" stroke="#FF64DE" stroke-width="0.5" stroke-linejoin="round"/>
<path d="M23.7405 36.8438L22.3906 36.0698" stroke="#FF64DE" stroke-width="0.5" stroke-linejoin="round"/>
<path d="M168.943 78.8907C174.381 82.1007 181.13 82.1388 186.594 78.9922L190.338 76.8354C197.214 72.8768 197.214 62.9806 190.338 59.0347L190.248 58.984C184.823 55.8755 178.15 55.8882 172.751 59.022L169.032 61.1789C162.219 65.1247 162.181 74.9069 168.956 78.9034L168.943 78.8907Z" fill="white" stroke="#FF64DE" stroke-width="0.25" stroke-linejoin="round"/>
<path d="M169.414 22.0759L173.031 7.58671L171.222 0.862305" stroke="#FF64DE" stroke-linejoin="round"/>
<path d="M190.006 8.44922L178.685 10.6188L174.432 32.4921" stroke="#FF64DE" stroke-linejoin="round"/>
<path d="M163.887 3.89453L171.222 14.8312" stroke="#FF64DE" stroke-linejoin="round"/>
<path d="M188.274 0.862305L182.225 9.94659" stroke="#FF64DE" stroke-linejoin="round"/>
<path d="M175.744 1.47119L172.318 4.93489" stroke="#FF64DE" stroke-linejoin="round"/>
<path d="M157.482 7.86572L167.95 9.94648" stroke="#FF64DE" stroke-linejoin="round"/>
<path d="M151.611 20.4644L169.415 37.3896L177.106 47.3112" stroke="#FF64DE" stroke-linejoin="round"/>
<path d="M148.797 27.7469L158.934 27.4297" stroke="#FF64DE" stroke-linejoin="round"/>
<path d="M150.186 32.4922L167.034 35.1312" stroke="#FF64DE" stroke-linejoin="round"/>
<path d="M152.707 40.5108L161.239 34.2305" stroke="#FF64DE" stroke-linejoin="round"/>
<path d="M204.193 13.3849L186.186 23.6364L176.381 41.2848L178.049 69.1974H179.692L175.642 34.9791L167.581 18.2696L151.611 12.7886" stroke="#FF64DE" stroke-linejoin="round"/>
<path d="M209.86 17.6479L194.184 19.0816" stroke="#FF64DE" stroke-linejoin="round"/>
<path d="M201.162 5.4043L198.793 16.4678" stroke="#FF64DE" stroke-linejoin="round"/>
<path d="M182.225 14.8311L182.53 30.2211" stroke="#FF64DE" stroke-linejoin="round"/>
<path d="M188.275 13.3848L182.379 18.2695" stroke="#FF64DE" stroke-linejoin="round"/>
<path d="M205.2 23.2178L184.506 26.6688" stroke="#FF64DE" stroke-linejoin="round"/>
<path d="M179.041 36.5013L192.858 32.2256L207.962 36.5013" stroke="#FF64DE" stroke-linejoin="round"/>
<path d="M203.429 41.2847L196.947 33.3804" stroke="#FF64DE" stroke-linejoin="round"/>
<path d="M191.852 39.6862L183.447 35.1313" stroke="#FF64DE" stroke-linejoin="round"/>
<path d="M207.466 27.062L201.162 34.573" stroke="#FF64DE" stroke-linejoin="round"/>
<path d="M196.947 28.3687L192.859 32.2257" stroke="#FF64DE" stroke-linejoin="round"/>
<path d="M192.859 12.7886V19.8429" stroke="#FF64DE" stroke-linejoin="round"/>
<path d="M204.321 8.44922L199.979 10.936" stroke="#FF64DE" stroke-linejoin="round"/>
<path d="M154.719 18.2695L160.475 15.8335" stroke="#FF64DE" stroke-linejoin="round"/>
<path d="M154.719 8.90576L156.973 14.8309" stroke="#FF64DE" stroke-linejoin="round"/>
<path d="M162.143 24.9175L172.662 28.7999" stroke="#FF64DE" stroke-linejoin="round"/>
<path d="M176.381 41.2847L178.049 69.1973H179.692L176.381 41.2847Z" fill="#FF64DE" stroke="#FF64DE" stroke-linejoin="round"/>
</g>
<defs>
<filter id="filter0_i_42_45423" x="0.5" y="0.506836" width="280" height="152.47" filterUnits="userSpaceOnUse" color-interpolation-filters="sRGB">
<feFlood flood-opacity="0" result="BackgroundImageFix"/>
<feBlend mode="normal" in="SourceGraphic" in2="BackgroundImageFix" result="shape"/>
<feColorMatrix in="SourceAlpha" type="matrix" values="0 0 0 0 0 0 0 0 0 0 0 0 0 0 0 0 0 0 127 0" result="hardAlpha"/>
<feOffset dy="4"/>
<feGaussianBlur stdDeviation="10"/>
<feComposite in2="hardAlpha" operator="arithmetic" k2="-1" k3="1"/>
<feColorMatrix type="matrix" values="0 0 0 0 1 0 0 0 0 0.7375 0 0 0 0 0.944113 0 0 0 1 0"/>
<feBlend mode="normal" in2="shape" result="effect1_innerShadow_42_45423"/>
</filter>
<radialGradient id="paint0_radial_42_45423" cx="0" cy="0" r="1" gradientUnits="userSpaceOnUse" gradientTransform="translate(179.699 72.9656) rotate(90) scale(54.696 94.4349)">
<stop stop-color="#D3EEF3"/>
<stop offset="1" stop-color="#94E0ED"/>
</radialGradient>
<radialGradient id="paint1_radial_42_45423" cx="0" cy="0" r="1" gradientUnits="userSpaceOnUse" gradientTransform="translate(25.7277 60.7473) scale(7.18242 7.15578)">
<stop stop-color="#0087C2"/>
<stop offset="0.31" stop-color="#0082AD"/>
<stop offset="0.93" stop-color="#00757A"/>
<stop offset="1" stop-color="#007474"/>
</radialGradient>
<radialGradient id="paint2_radial_42_45423" cx="0" cy="0" r="1" gradientUnits="userSpaceOnUse" gradientTransform="translate(135.17 95.9174) scale(12.5947 12.548)">
<stop stop-color="#0087C2"/>
<stop offset="0.31" stop-color="#0082AD"/>
<stop offset="0.93" stop-color="#00757A"/>
<stop offset="1" stop-color="#007474"/>
</radialGradient>
<radialGradient id="paint3_radial_42_45423" cx="0" cy="0" r="1" gradientUnits="userSpaceOnUse" gradientTransform="translate(107.307 112.094) scale(12.5055 12.4592)">
<stop stop-color="#0087C2"/>
<stop offset="0.31" stop-color="#0082AD"/>
<stop offset="0.93" stop-color="#00757A"/>
<stop offset="1" stop-color="#007474"/>
</radialGradient>
<radialGradient id="paint4_radial_42_45423" cx="0" cy="0" r="1" gradientUnits="userSpaceOnUse" gradientTransform="translate(21.6917 95.9301) scale(12.5947 12.548)">
<stop stop-color="#0087C2"/>
<stop offset="0.31" stop-color="#0082AD"/>
<stop offset="0.93" stop-color="#00757A"/>
<stop offset="1" stop-color="#007474"/>
</radialGradient>
<radialGradient id="paint5_radial_42_45423" cx="0" cy="0" r="1" gradientUnits="userSpaceOnUse" gradientTransform="translate(49.5668 112.106) scale(12.5056 12.4592)">
<stop stop-color="#0087C2"/>
<stop offset="0.31" stop-color="#0082AD"/>
<stop offset="0.93" stop-color="#00757A"/>
<stop offset="1" stop-color="#007474"/>
</radialGradient>
<radialGradient id="paint6_radial_42_45423" cx="0" cy="0" r="1" gradientUnits="userSpaceOnUse" gradientTransform="translate(77.4445 109.633) scale(10.9901 10.9494)">
<stop stop-color="#0087C2"/>
<stop offset="0.31" stop-color="#0082AD"/>
<stop offset="0.93" stop-color="#00757A"/>
<stop offset="1" stop-color="#007474"/>
</radialGradient>
<radialGradient id="paint7_radial_42_45423" cx="0" cy="0" r="1" gradientUnits="userSpaceOnUse" gradientTransform="translate(79.4563 109.633) scale(10.9901 10.9494)">
<stop stop-color="#0087C2"/>
<stop offset="0.31" stop-color="#0082AD"/>
<stop offset="0.93" stop-color="#00757A"/>
<stop offset="1" stop-color="#007474"/>
</radialGradient>
<radialGradient id="paint8_radial_42_45423" cx="0" cy="0" r="1" gradientUnits="userSpaceOnUse" gradientTransform="translate(51.6046 112.741) scale(12.0471 12.0024)">
<stop stop-color="#0087C2"/>
<stop offset="0.31" stop-color="#0082AD"/>
<stop offset="0.93" stop-color="#00757A"/>
<stop offset="1" stop-color="#007474"/>
</radialGradient>
<radialGradient id="paint9_radial_42_45423" cx="0" cy="0" r="1" gradientUnits="userSpaceOnUse" gradientTransform="translate(68.4905 105.192) scale(10.1751 10.1374)">
<stop stop-color="#0087C2"/>
<stop offset="0.31" stop-color="#0082AD"/>
<stop offset="0.93" stop-color="#00757A"/>
<stop offset="1" stop-color="#007474"/>
</radialGradient>
<radialGradient id="paint10_radial_42_45423" cx="0" cy="0" r="1" gradientUnits="userSpaceOnUse" gradientTransform="translate(69.4456 105.192) scale(10.1114 10.0739)">
<stop stop-color="#0087C2"/>
<stop offset="0.31" stop-color="#0082AD"/>
<stop offset="0.93" stop-color="#00757A"/>
<stop offset="1" stop-color="#007474"/>
</radialGradient>
<radialGradient id="paint11_radial_42_45423" cx="0" cy="0" r="1" gradientUnits="userSpaceOnUse" gradientTransform="translate(88.4593 105.192) scale(10.1751 10.1374)">
<stop stop-color="#0087C2"/>
<stop offset="0.31" stop-color="#0082AD"/>
<stop offset="0.93" stop-color="#00757A"/>
<stop offset="1" stop-color="#007474"/>
</radialGradient>
<radialGradient id="paint12_radial_42_45423" cx="0" cy="0" r="1" gradientUnits="userSpaceOnUse" gradientTransform="translate(87.5042 105.192) scale(10.1114 10.0739)">
<stop stop-color="#0087C2"/>
<stop offset="0.31" stop-color="#0082AD"/>
<stop offset="0.93" stop-color="#00757A"/>
<stop offset="1" stop-color="#007474"/>
</radialGradient>
<radialGradient id="paint13_radial_42_45423" cx="0" cy="0" r="1" gradientUnits="userSpaceOnUse" gradientTransform="translate(105.281 112.728) scale(12.0471 12.0024)">
<stop stop-color="#0087C2"/>
<stop offset="0.31" stop-color="#0082AD"/>
<stop offset="0.93" stop-color="#00757A"/>
<stop offset="1" stop-color="#007474"/>
</radialGradient>
<radialGradient id="paint14_radial_42_45423" cx="0" cy="0" r="1" gradientUnits="userSpaceOnUse" gradientTransform="translate(23.7277 96.5388) scale(12.1617 12.1166)">
<stop stop-color="#0087C2"/>
<stop offset="0.31" stop-color="#0082AD"/>
<stop offset="0.93" stop-color="#00757A"/>
<stop offset="1" stop-color="#007474"/>
</radialGradient>
<radialGradient id="paint15_radial_42_45423" cx="0" cy="0" r="1" gradientUnits="userSpaceOnUse" gradientTransform="translate(133.119 96.5262) scale(12.1618 12.1166)">
<stop stop-color="#0087C2"/>
<stop offset="0.31" stop-color="#0082AD"/>
<stop offset="0.93" stop-color="#00757A"/>
<stop offset="1" stop-color="#007474"/>
</radialGradient>
<radialGradient id="paint16_radial_42_45423" cx="0" cy="0" r="1" gradientUnits="userSpaceOnUse" gradientTransform="translate(131.388 60.76) scale(7.15696 7.1304)">
<stop stop-color="#0087C2"/>
<stop offset="0.31" stop-color="#0082AD"/>
<stop offset="0.93" stop-color="#00757A"/>
<stop offset="1" stop-color="#007474"/>
</radialGradient>
<radialGradient id="paint17_radial_42_45423" cx="0" cy="0" r="1" gradientUnits="userSpaceOnUse" gradientTransform="translate(107.269 58.2732) scale(2.07577 2.06807)">
<stop stop-color="#0087C2"/>
<stop offset="0.31" stop-color="#0082AD"/>
<stop offset="0.93" stop-color="#00757A"/>
<stop offset="1" stop-color="#007474"/>
</radialGradient>
<radialGradient id="paint18_radial_42_45423" cx="0" cy="0" r="1" gradientUnits="userSpaceOnUse" gradientTransform="translate(49.6184 58.2732) rotate(180) scale(2.07577 2.06807)">
<stop stop-color="#0087C2"/>
<stop offset="0.31" stop-color="#0082AD"/>
<stop offset="0.93" stop-color="#00757A"/>
<stop offset="1" stop-color="#007474"/>
</radialGradient>
<clipPath id="clip0_42_45423">
<rect width="280" height="148.47" fill="white" transform="translate(0.5 0.506836)"/>
</clipPath>
</defs>
</svg>
