<svg width="251" height="234" viewBox="0 0 251 234" fill="none" xmlns="http://www.w3.org/2000/svg">
<g id="&#236;&#161;&#180;&#235;&#141;&#149;&#236;&#160;&#149;" clip-path="url(#clip0_42_46498)" filter="url(#filter0_i_42_46498)">
<path id="Vector" d="M35.0117 168.665L130.619 225.401L242.905 160.447L145.551 104.32L35.0117 168.665Z" fill="url(#paint0_radial_42_46498)" stroke="#FF64DE" stroke-width="0.5" stroke-linejoin="round"/>
<path id="Vector_2" d="M8.36914 106.847L31.4582 120.574H97.7634L120.655 106.953L97.7634 93.6519L31.4582 93.6975L8.36914 106.847Z" fill="white" stroke="#FF64DE" stroke-width="0.5" stroke-linejoin="round"/>
<path id="Vector_3" d="M18.9707 84.3838H110.811L64.8906 45.8193L18.9707 84.3838Z" fill="#C1EBF5" stroke="#FF64DE" stroke-width="0.5" stroke-linejoin="round"/>
<path id="Vector_4" d="M67.459 48.0718V84.2774" stroke="#FF64DE" stroke-width="0.5" stroke-linejoin="round"/>
<path id="Vector_5" d="M72.6836 52.2568V84.2772" stroke="#FF64DE" stroke-width="0.5" stroke-linejoin="round"/>
<path id="Vector_6" d="M77.8945 56.7769V84.2773" stroke="#FF64DE" stroke-width="0.5" stroke-linejoin="round"/>
<path id="Vector_7" d="M83.2715 61.0835V84.277" stroke="#FF64DE" stroke-width="0.5" stroke-linejoin="round"/>
<path id="Vector_8" d="M88.6641 65.543V84.2773" stroke="#FF64DE" stroke-width="0.5" stroke-linejoin="round"/>
<path id="Vector_9" d="M94.0566 70.23V84.277" stroke="#FF64DE" stroke-width="0.5" stroke-linejoin="round"/>
<path id="Vector_10" d="M99.4492 74.75V84.277" stroke="#FF64DE" stroke-width="0.5" stroke-linejoin="round"/>
<path id="Vector_11" d="M104.826 79.0571V84.2772" stroke="#FF64DE" stroke-width="0.5" stroke-linejoin="round"/>
<path id="Vector_12" d="M107.529 81.3857V84.2773" stroke="#FF64DE" stroke-width="0.5" stroke-linejoin="round"/>
<path id="Vector_13" d="M62.3242 48.0718V84.2774" stroke="#FF64DE" stroke-width="0.5" stroke-linejoin="round"/>
<path id="Vector_14" d="M57.0977 52.5762V84.277" stroke="#FF64DE" stroke-width="0.5" stroke-linejoin="round"/>
<path id="Vector_15" d="M51.8887 56.5181V84.2772" stroke="#FF64DE" stroke-width="0.5" stroke-linejoin="round"/>
<path id="Vector_16" d="M46.8906 60.7334V84.2769" stroke="#FF64DE" stroke-width="0.5" stroke-linejoin="round"/>
<path id="Vector_17" d="M41.666 65.0557V84.277" stroke="#FF64DE" stroke-width="0.5" stroke-linejoin="round"/>
<path id="Vector_18" d="M36.4395 69.4692V84.2772" stroke="#FF64DE" stroke-width="0.5" stroke-linejoin="round"/>
<path id="Vector_19" d="M31.2305 73.8979V84.2772" stroke="#FF64DE" stroke-width="0.5" stroke-linejoin="round"/>
<path id="Vector_20" d="M26.0039 78.418V84.2772" stroke="#FF64DE" stroke-width="0.5" stroke-linejoin="round"/>
<path id="Vector_21" d="M18.9703 84.3838L3.81055 63.6254L64.8903 45.8193L18.9703 84.3838Z" fill="#05AED8" stroke="#FF64DE" stroke-width="0.5" stroke-linejoin="round"/>
<path id="Vector_22" d="M34.8898 54.6919L11.5273 74.0502" stroke="#FF64DE" stroke-width="0.5" stroke-linejoin="round"/>
<path id="Vector_23" d="M22.3441 58.2378L8.36914 69.8954" stroke="#FF64DE" stroke-width="0.5" stroke-linejoin="round"/>
<path id="Vector_24" d="M14.9602 58.4658L5.72461 66.1818" stroke="#FF64DE" stroke-width="0.5" stroke-linejoin="round"/>
<path id="Vector_25" d="M47.3015 50.9326L14.6426 78.1439" stroke="#FF64DE" stroke-width="0.5" stroke-linejoin="round"/>
<path id="Vector_26" d="M59.1485 47.5693L17.8008 82.2987" stroke="#FF64DE" stroke-width="0.5" stroke-linejoin="round"/>
<path id="Vector_27" d="M110.811 84.3838L64.8906 45.8193L125.925 63.6101L110.811 84.3838Z" fill="#C1EBF5" stroke="#FF64DE" stroke-width="0.5" stroke-linejoin="round"/>
<path id="Vector_28" d="M95.0293 54.6919L118.407 74.0502" stroke="#FF64DE" stroke-width="0.5" stroke-linejoin="round"/>
<path id="Vector_29" d="M107.576 58.2378L121.566 69.8954" stroke="#FF64DE" stroke-width="0.5" stroke-linejoin="round"/>
<path id="Vector_30" d="M120.139 61.8901L124.711 65.7405" stroke="#FF64DE" stroke-width="0.5" stroke-linejoin="round"/>
<path id="Vector_31" d="M82.6172 50.9326L115.276 78.1439" stroke="#FF64DE" stroke-width="0.5" stroke-linejoin="round"/>
<path id="Vector_32" d="M70.7695 47.5693L112.132 82.2987" stroke="#FF64DE" stroke-width="0.5" stroke-linejoin="round"/>
<path id="Vector_33" d="M3.81055 63.6254L39.4771 45.8193H64.8903L3.81055 63.6254Z" fill="white" stroke="#FF64DE" stroke-width="0.5" stroke-linejoin="round"/>
<path id="Vector_34" d="M125.727 63.5188L64.8906 45.8193H90.4253L125.727 63.5188Z" fill="white" stroke="#FF64DE" stroke-width="0.5" stroke-linejoin="round"/>
<path id="Vector_35" d="M3.81055 63.6251V60.6727L57.2496 45.4082V47.9954L3.81055 63.6251Z" fill="#D3EEF3" stroke="#FF64DE" stroke-width="0.5" stroke-linejoin="round"/>
<path id="Vector_36" d="M125.97 63.6251V60.6727L72.5312 45.4082V47.9954L125.97 63.6251Z" fill="white" stroke="#FF64DE" stroke-width="0.5" stroke-linejoin="round"/>
<path id="Vector_37" d="M18.9707 84.3836V81.3551L60.6374 46.3975L60.3488 49.6391L18.9707 84.3836Z" fill="white" stroke="#FF64DE" stroke-width="0.5" stroke-linejoin="round"/>
<path id="Vector_38" d="M110.811 84.3836V81.3551L69.1445 46.3975L69.4483 49.6391L110.811 84.3836Z" fill="white" stroke="#FF64DE" stroke-width="0.5" stroke-linejoin="round"/>
<path id="Vector_39" d="M18.9707 84.3837L21.6442 82.1465H108.137L110.811 84.3837H18.9707Z" fill="white" stroke="#FF64DE" stroke-width="0.5" stroke-linejoin="round"/>
<path id="Vector_40" d="M123.98 63.0469L110.811 81.3551V84.3837L125.925 63.61L123.98 63.0469Z" fill="white" stroke="#FF64DE" stroke-width="0.5" stroke-linejoin="round"/>
<path id="Vector_41" d="M5.75489 63.0469L18.9248 81.3551V84.3837L3.81055 63.61L5.75489 63.0469Z" fill="#D3EEF3" stroke="#FF64DE" stroke-width="0.5" stroke-linejoin="round"/>
<path id="Vector_42" d="M26.8698 54.0832L39.8118 47.5695L50.6424 47.2956L55.4121 45.9411L39.4776 45.8193L17.9531 56.5638L26.8698 54.0832Z" fill="white" stroke="#FF64DE" stroke-width="0.5" stroke-linejoin="round"/>
<path id="Vector_43" d="M73.959 45.8193L79.5794 47.4325L89.9846 47.5695L103.17 54.1593L111.57 56.5638L90.4251 45.8193H73.959Z" fill="white" stroke="#FF64DE" stroke-width="0.5" stroke-linejoin="round"/>
<path id="Vector_44" d="M39.0521 115.826L31.457 111.58L31.533 105.523L39.204 110.012L90.0911 109.951L105.327 101.063V107.318L89.9848 116.237L39.0521 115.826Z" fill="white" stroke="#FF64DE" stroke-width="0.5" stroke-linejoin="round"/>
<path id="Vector_45" d="M97.7622 123.192L31.457 123.177V120.574H97.7622V123.192Z" fill="white" stroke="#FF64DE" stroke-width="0.5" stroke-linejoin="round"/>
<path id="Vector_46" d="M59.4677 89.208V93.6823L31.457 93.6976V89.208H59.4677Z" fill="#D3EEF3" stroke="#FF64DE" stroke-width="0.5" stroke-linejoin="round"/>
<path id="Vector_47" d="M97.9447 89.208V93.6823L69.6758 93.6976V89.208H97.9447Z" fill="#D3EEF3" stroke="#FF64DE" stroke-width="0.5" stroke-linejoin="round"/>
<path id="Vector_48" d="M120.654 104.183V108.658L97.9902 93.6976V89.208L120.654 104.183Z" fill="#D3EEF3" stroke="#FF64DE" stroke-width="0.5" stroke-linejoin="round"/>
<path id="Vector_49" d="M31.457 114.304V120.574H97.7622L118.375 108.262L117.98 102.585L97.7622 114.289L31.457 114.304Z" fill="white" stroke="#FF64DE" stroke-width="0.5" stroke-linejoin="round"/>
<path id="Vector_50" d="M39.0527 84.3838L39.0983 114.304H44.2782V84.3838H39.0527Z" fill="url(#paint1_radial_42_46498)" stroke="#FF64DE" stroke-width="0.5" stroke-linejoin="round"/>
<path id="Vector_51" d="M84.7598 84.3838L84.8053 114.304H89.9852V84.3838H84.7598Z" fill="url(#paint2_radial_42_46498)" stroke="#FF64DE" stroke-width="0.5" stroke-linejoin="round"/>
<path id="Vector_52" d="M18.5762 68.754H110.431L64.4961 30.1895L18.5762 68.754Z" fill="#C1EBF5" stroke="#FF64DE" stroke-width="0.5" stroke-linejoin="round"/>
<path id="Vector_53" d="M67.0781 32.4419V68.6475" stroke="#FF64DE" stroke-width="0.5" stroke-linejoin="round"/>
<path id="Vector_54" d="M72.2891 36.627V68.6474" stroke="#FF64DE" stroke-width="0.5" stroke-linejoin="round"/>
<path id="Vector_55" d="M77.5 41.147V68.6474" stroke="#FF64DE" stroke-width="0.5" stroke-linejoin="round"/>
<path id="Vector_56" d="M82.8906 45.4541V68.6476" stroke="#FF64DE" stroke-width="0.5" stroke-linejoin="round"/>
<path id="Vector_57" d="M88.2832 49.9131V68.6475" stroke="#FF64DE" stroke-width="0.5" stroke-linejoin="round"/>
<path id="Vector_58" d="M93.6621 54.6006V68.6476" stroke="#FF64DE" stroke-width="0.5" stroke-linejoin="round"/>
<path id="Vector_59" d="M99.0547 59.1206V68.6476" stroke="#FF64DE" stroke-width="0.5" stroke-linejoin="round"/>
<path id="Vector_60" d="M104.447 63.4272V68.6473" stroke="#FF64DE" stroke-width="0.5" stroke-linejoin="round"/>
<path id="Vector_61" d="M107.135 65.7559V68.6474" stroke="#FF64DE" stroke-width="0.5" stroke-linejoin="round"/>
<path id="Vector_62" d="M61.9297 32.4419V68.6475" stroke="#FF64DE" stroke-width="0.5" stroke-linejoin="round"/>
<path id="Vector_63" d="M56.7188 36.9468V68.6476" stroke="#FF64DE" stroke-width="0.5" stroke-linejoin="round"/>
<path id="Vector_64" d="M51.5078 40.8882V68.6473" stroke="#FF64DE" stroke-width="0.5" stroke-linejoin="round"/>
<path id="Vector_65" d="M46.4961 45.104V68.6475" stroke="#FF64DE" stroke-width="0.5" stroke-linejoin="round"/>
<path id="Vector_66" d="M41.2695 49.4258V68.6472" stroke="#FF64DE" stroke-width="0.5" stroke-linejoin="round"/>
<path id="Vector_67" d="M36.0605 53.8394V68.6473" stroke="#FF64DE" stroke-width="0.5" stroke-linejoin="round"/>
<path id="Vector_68" d="M30.834 58.2681V68.6473" stroke="#FF64DE" stroke-width="0.5" stroke-linejoin="round"/>
<path id="Vector_69" d="M25.625 62.7881V68.6473" stroke="#FF64DE" stroke-width="0.5" stroke-linejoin="round"/>
<path id="Vector_70" d="M18.5762 68.754L3.43164 47.9955L64.4962 30.1895L18.5762 68.754Z" fill="#05AED8" stroke="#FF64DE" stroke-width="0.5" stroke-linejoin="round"/>
<path id="Vector_71" d="M34.4953 39.062L11.1328 58.4204" stroke="#FF64DE" stroke-width="0.5" stroke-linejoin="round"/>
<path id="Vector_72" d="M21.9628 42.6079L7.97266 54.2655" stroke="#FF64DE" stroke-width="0.5" stroke-linejoin="round"/>
<path id="Vector_73" d="M9.3867 46.2607L4.81445 50.1111" stroke="#FF64DE" stroke-width="0.5" stroke-linejoin="round"/>
<path id="Vector_74" d="M46.9221 35.3027L14.248 62.514" stroke="#FF64DE" stroke-width="0.5" stroke-linejoin="round"/>
<path id="Vector_75" d="M58.7691 31.9395L17.4062 66.6688" stroke="#FF64DE" stroke-width="0.5" stroke-linejoin="round"/>
<path id="Vector_76" d="M110.431 68.754L64.4961 30.1895L125.545 47.9803L110.431 68.754Z" fill="#C1EBF5" stroke="#FF64DE" stroke-width="0.5" stroke-linejoin="round"/>
<path id="Vector_77" d="M94.6484 39.062L118.011 58.4204" stroke="#FF64DE" stroke-width="0.5" stroke-linejoin="round"/>
<path id="Vector_78" d="M107.195 42.6079L121.17 54.2655" stroke="#FF64DE" stroke-width="0.5" stroke-linejoin="round"/>
<path id="Vector_79" d="M119.758 46.2607L124.33 50.1111" stroke="#FF64DE" stroke-width="0.5" stroke-linejoin="round"/>
<path id="Vector_80" d="M82.2227 35.3027L114.897 62.514" stroke="#FF64DE" stroke-width="0.5" stroke-linejoin="round"/>
<path id="Vector_81" d="M70.3906 31.9395L111.738 66.6688" stroke="#FF64DE" stroke-width="0.5" stroke-linejoin="round"/>
<path id="Vector_82" d="M3.43164 47.9955L39.0982 30.1895H64.4962L3.43164 47.9955Z" fill="#05AED8" stroke="#FF64DE" stroke-width="0.5" stroke-linejoin="round"/>
<path id="Vector_83" d="M125.348 47.8889L64.4961 30.1895H90.046L125.348 47.8889Z" fill="#05AED8" stroke="#FF64DE" stroke-width="0.5" stroke-linejoin="round"/>
<path id="Vector_84" d="M3.43164 47.9953V45.0428L56.8555 29.7783V32.3655L3.43164 47.9953Z" fill="#D3EEF3" stroke="#FF64DE" stroke-width="0.5" stroke-linejoin="round"/>
<path id="Vector_85" d="M125.576 47.9953V45.0428L72.1523 29.7783V32.3655L125.576 47.9953Z" fill="white" stroke="#FF64DE" stroke-width="0.5" stroke-linejoin="round"/>
<path id="Vector_86" d="M18.5762 68.7538V65.7252L60.258 30.7676L59.9542 34.0092L18.5762 68.7538Z" fill="white" stroke="#FF64DE" stroke-width="0.5" stroke-linejoin="round"/>
<path id="Vector_87" d="M110.432 68.7538V65.7252L68.75 30.7676L69.0538 34.0092L110.432 68.7538Z" fill="white" stroke="#FF64DE" stroke-width="0.5" stroke-linejoin="round"/>
<path id="Vector_88" d="M18.5762 68.7538L21.2648 66.5166H107.743L110.431 68.7538H18.5762Z" fill="white" stroke="#FF64DE" stroke-width="0.5" stroke-linejoin="round"/>
<path id="Vector_89" d="M123.602 47.417L110.432 65.7252V68.7538L125.546 47.9801L123.602 47.417Z" fill="white" stroke="#FF64DE" stroke-width="0.5" stroke-linejoin="round"/>
<path id="Vector_90" d="M5.37598 47.417L18.5459 65.7252V68.7538L3.43164 47.9801L5.37598 47.417Z" fill="#D3EEF3" stroke="#FF64DE" stroke-width="0.5" stroke-linejoin="round"/>
<path id="Vector_91" d="M26.4909 38.4533L39.4177 31.9396L50.2635 31.6657L55.018 30.3112L39.0987 30.1895L17.5742 40.9339L26.4909 38.4533Z" fill="#D3EEF3" stroke="#FF64DE" stroke-width="0.5" stroke-linejoin="round"/>
<path id="Vector_92" d="M73.5801 30.1895L79.2004 31.8027L89.5905 31.9396L102.776 38.5294L111.191 40.9339L90.0462 30.1895H73.5801Z" fill="white" stroke="#FF64DE" stroke-width="0.5" stroke-linejoin="round"/>
<path id="Vector_93" d="M55.7617 34.7248L61.5188 38.0578L67.4278 38.1339L73.2608 34.7553V27.9829L67.3366 31.3767L61.5947 31.3615L55.7617 27.9829V34.7248Z" fill="#05AED8" stroke="#FF64DE" stroke-width="0.5" stroke-linejoin="round"/>
<path id="Vector_94" d="M58.6782 24.665L55.7617 27.9827L61.5947 31.3612L67.3366 31.3765L73.2608 27.9827L70.3747 24.5889L67.7923 29.1393L64.5265 26.3086L61.0631 28.9871L58.6782 24.665Z" fill="#C1EBF5" stroke="#FF64DE" stroke-width="0.5" stroke-linejoin="round"/>
<path id="Vector_95" d="M58.6777 24.665L61.5943 21.2407H67.1994L70.3742 24.5889L67.7918 29.1393L64.526 26.3086L61.0626 28.9871L58.6777 24.665Z" fill="white" stroke="#FF64DE" stroke-width="0.5" stroke-linejoin="round"/>
<path id="Vector_96" d="M68.0667 19.2168H60.9121V21.2257H68.0667V19.2168Z" fill="#05AED8" stroke="#FF64DE" stroke-width="0.5" stroke-linejoin="round"/>
<path id="Vector_97" d="M61.3516 14.3617L62.1263 19.2165H66.9264L67.8833 14.2551L65.8479 12.5811L63.4326 12.6419L61.3516 14.3617Z" fill="#C1EBF5" stroke="#FF64DE" stroke-width="0.5" stroke-linejoin="round"/>
<path id="Vector_98" d="M62.6432 13.1899L62.0508 9.52212L64.861 8.22852L67.3522 9.53733L66.8205 13.1899L66.1066 12.8094H63.2964L62.6432 13.1899Z" fill="#C1EBF5" stroke="#FF64DE" stroke-width="0.5" stroke-linejoin="round"/>
<path id="Vector_99" d="M63.6309 8.80675L64.1169 2.99316H65.4385L66.0461 8.83719L64.8916 8.22844L63.6309 8.80675Z" fill="#C1EBF5" stroke="#FF64DE" stroke-width="0.5" stroke-linejoin="round"/>
<path id="Vector_100" d="M63.0684 1.85187L64.2228 2.99329H65.5444L66.79 1.85187L64.9519 0.436523L63.0684 1.85187Z" fill="#C1EBF5" stroke="#FF64DE" stroke-width="0.5" stroke-linejoin="round"/>
<path id="Vector_101" d="M31.4582 84.3838H28.9062V120.559H31.4582V84.3838Z" fill="url(#paint3_radial_42_46498)" stroke="#FF64DE" stroke-width="0.5" stroke-linejoin="round"/>
<path id="Vector_102" d="M23.8937 84.3838H21.3418V116.967H23.8937V84.3838Z" fill="url(#paint4_radial_42_46498)" stroke="#FF64DE" stroke-width="0.5" stroke-linejoin="round"/>
<path id="Vector_103" d="M13.5324 109.708H10.9805V73.5327L13.5932 77.0026L13.5324 109.708Z" fill="url(#paint5_radial_42_46498)" stroke="#FF64DE" stroke-width="0.5" stroke-linejoin="round"/>
<path id="Vector_104" d="M16.0852 112.934H13.5332L13.594 77.0024L16.0852 80.4267V112.934Z" fill="url(#paint6_radial_42_46498)" stroke="#FF64DE" stroke-width="0.5" stroke-linejoin="round"/>
<path id="Vector_105" d="M115.535 110.773H118.087V74.5981L115.459 78.068L115.535 110.773Z" fill="url(#paint7_radial_42_46498)" stroke="#FF64DE" stroke-width="0.5" stroke-linejoin="round"/>
<path id="Vector_106" d="M112.982 112.097H115.534L115.458 78.0679L112.982 81.3095V112.097Z" fill="url(#paint8_radial_42_46498)" stroke="#FF64DE" stroke-width="0.5" stroke-linejoin="round"/>
<path id="Vector_107" d="M107.88 84.3838H105.328V116.754H107.88V84.3838Z" fill="url(#paint9_radial_42_46498)" stroke="#FF64DE" stroke-width="0.5" stroke-linejoin="round"/>
<path id="Vector_108" d="M115.884 142.596L117.464 139.719L115.976 114.304L114.578 114.912L115.884 142.596Z" fill="white" stroke="#FF64DE" stroke-width="0.5" stroke-linejoin="round"/>
<path id="Vector_109" d="M112.056 114.913L110.811 142.58L113.271 144.011L113.332 115.46L112.056 114.913Z" fill="#D3EEF3" stroke="#FF64DE" stroke-width="0.5" stroke-linejoin="round"/>
<path id="Vector_110" d="M113.271 144.011L113.332 115.46L114.654 116.039L115.884 142.596L113.271 144.011Z" fill="white" stroke="#FF64DE" stroke-width="0.5" stroke-linejoin="round"/>
<path id="Vector_111" d="M110.812 142.58L109.156 139.719L110.645 114.304L112.058 114.912L110.812 142.58Z" fill="#D3EEF3" stroke="#FF64DE" stroke-width="0.5" stroke-linejoin="round"/>
<path id="Vector_112" d="M100.316 84.3838H97.7637V120.559H100.316V84.3838Z" fill="url(#paint10_radial_42_46498)" stroke="#FF64DE" stroke-width="0.5" stroke-linejoin="round"/>
<path id="Vector_113" d="M8.36914 106.847L31.4582 120.574V123.176L8.36914 109.997V106.847Z" fill="#D3EEF3" stroke="#FF64DE" stroke-width="0.5" stroke-linejoin="round"/>
<path id="Vector_114" d="M92.5974 155.593L94.1771 152.716L92.6885 127.301L91.291 127.91L92.5974 155.593Z" fill="white" stroke="#FF64DE" stroke-width="0.5" stroke-linejoin="round"/>
<path id="Vector_115" d="M120.655 106.953L97.7637 120.574V123.192L120.625 109.89L120.655 106.953Z" fill="white" stroke="#FF64DE" stroke-width="0.5" stroke-linejoin="round"/>
<path id="Vector_116" d="M77.8945 123.192H95.1354V130.68L77.8945 123.192Z" fill="#D3EEF3" stroke="#FF64DE" stroke-width="0.5" stroke-linejoin="round"/>
<path id="Vector_117" d="M100.315 127.62L95.1348 130.679V123.192H97.7627L100.239 121.883L100.315 127.62Z" fill="white" stroke="#FF64DE" stroke-width="0.5" stroke-linejoin="round"/>
<path id="Vector_118" d="M120.731 115.795L115.551 118.885V112.95L120.639 109.906L120.731 115.795Z" fill="white" stroke="#FF64DE" stroke-width="0.5" stroke-linejoin="round"/>
<path id="Vector_119" d="M88.771 127.91L87.5254 155.577L89.9862 157.008L90.047 128.458L88.771 127.91Z" fill="#D3EEF3" stroke="#FF64DE" stroke-width="0.5" stroke-linejoin="round"/>
<path id="Vector_120" d="M89.9844 157.008L90.0451 128.458L91.3667 129.036L92.5971 155.593L89.9844 157.008Z" fill="white" stroke="#FF64DE" stroke-width="0.5" stroke-linejoin="round"/>
<path id="Vector_121" d="M87.5249 155.577L85.8691 152.716L87.3578 127.301L88.7705 127.91L87.5249 155.577Z" fill="#D3EEF3" stroke="#FF64DE" stroke-width="0.5" stroke-linejoin="round"/>
<path id="Vector_122" d="M11.0715 111.503L0.878906 117.256L28.9504 133.51L46.814 123.191L31.4567 123.176L11.0715 111.503Z" fill="#D3EEF3" stroke="#FF64DE" stroke-width="0.5" stroke-linejoin="round"/>
<path id="Vector_123" d="M115.551 118.885L110.523 115.795L115.551 112.949V118.885Z" fill="#D3EEF3" stroke="#FF64DE" stroke-width="0.5" stroke-linejoin="round"/>
<path id="Vector_124" d="M22.0098 117.819L22.0401 123.694L24.7136 125.17V119.372L22.0098 117.819Z" fill="#D3EEF3" stroke="#FF64DE" stroke-width="0.5" stroke-linejoin="round"/>
<path id="Vector_125" d="M28.8301 121.883L28.8605 127.757L31.5339 129.233V123.42L28.8301 121.883Z" fill="#D3EEF3" stroke="#FF64DE" stroke-width="0.5" stroke-linejoin="round"/>
<path id="Vector_126" d="M15.1895 113.878L15.2198 119.752L17.8933 121.229V115.415L15.1895 113.878Z" fill="#D3EEF3" stroke="#FF64DE" stroke-width="0.5" stroke-linejoin="round"/>
<path id="Vector_127" d="M8.36914 109.966L8.39952 115.841L11.073 117.317V111.503L8.36914 109.966Z" fill="#D3EEF3" stroke="#FF64DE" stroke-width="0.5" stroke-linejoin="round"/>
<path id="Vector_128" d="M0.878906 117.333V120.437L28.8592 136.447L28.8744 133.51L0.878906 117.333Z" fill="#D3EEF3" stroke="#FF64DE" stroke-width="0.5" stroke-linejoin="round"/>
<path id="Vector_129" d="M41.1641 123.222L41.6653 132.003L56.9315 123.222H41.1641Z" fill="white" stroke="#FF64DE" stroke-width="0.5" stroke-linejoin="round"/>
<path id="Vector_130" d="M28.8594 136.447L28.8746 133.51L36.2418 129.233H41.1634L28.8594 136.447Z" fill="white" stroke="#FF64DE" stroke-width="0.5" stroke-linejoin="round"/>
<path id="Vector_131" d="M36.2422 123.176V129.233H39.0979L39.0524 130.557L41.6651 132.003L41.6347 123.222L36.2422 123.176Z" fill="#D3EEF3" stroke="#FF64DE" stroke-width="0.5" stroke-linejoin="round"/>
</g>
<defs>
<filter id="filter0_i_42_46498" x="0.5" y="0.0561523" width="250" height="236.955" filterUnits="userSpaceOnUse" color-interpolation-filters="sRGB">
<feFlood flood-opacity="0" result="BackgroundImageFix"/>
<feBlend mode="normal" in="SourceGraphic" in2="BackgroundImageFix" result="shape"/>
<feColorMatrix in="SourceAlpha" type="matrix" values="0 0 0 0 0 0 0 0 0 0 0 0 0 0 0 0 0 0 127 0" result="hardAlpha"/>
<feOffset dy="4"/>
<feGaussianBlur stdDeviation="10"/>
<feComposite in2="hardAlpha" operator="arithmetic" k2="-1" k3="1"/>
<feColorMatrix type="matrix" values="0 0 0 0 1 0 0 0 0 0.7375 0 0 0 0 0.944113 0 0 0 1 0"/>
<feBlend mode="normal" in2="shape" result="effect1_innerShadow_42_46498"/>
</filter>
<radialGradient id="paint0_radial_42_46498" cx="0" cy="0" r="1" gradientUnits="userSpaceOnUse" gradientTransform="translate(138.958 164.861) rotate(90) scale(60.5405 103.946)">
<stop stop-color="#D3EEF3"/>
<stop offset="1" stop-color="#94E0ED"/>
</radialGradient>
<radialGradient id="paint1_radial_42_46498" cx="0" cy="0" r="1" gradientUnits="userSpaceOnUse" gradientTransform="translate(41.6654 99.3439) scale(10.7091 10.7293)">
<stop stop-color="#0087C2"/>
<stop offset="0.31" stop-color="#0082AD"/>
<stop offset="0.93" stop-color="#00757A"/>
<stop offset="1" stop-color="#007474"/>
</radialGradient>
<radialGradient id="paint2_radial_42_46498" cx="0" cy="0" r="1" gradientUnits="userSpaceOnUse" gradientTransform="translate(87.3725 0.817237) scale(0.759509 0.760941)">
<stop stop-color="#0087C2"/>
<stop offset="0.31" stop-color="#0082AD"/>
<stop offset="0.93" stop-color="#00757A"/>
<stop offset="1" stop-color="#007474"/>
</radialGradient>
<radialGradient id="paint3_radial_42_46498" cx="0" cy="0" r="1" gradientUnits="userSpaceOnUse" gradientTransform="translate(30.1822 102.479) scale(12.8053 12.8295)">
<stop stop-color="#0087C2"/>
<stop offset="0.31" stop-color="#0082AD"/>
<stop offset="0.93" stop-color="#00757A"/>
<stop offset="1" stop-color="#007474"/>
</radialGradient>
<radialGradient id="paint4_radial_42_46498" cx="0" cy="0" r="1" gradientUnits="userSpaceOnUse" gradientTransform="translate(22.6178 100.683) scale(11.5293 11.5511)">
<stop stop-color="#0087C2"/>
<stop offset="0.31" stop-color="#0082AD"/>
<stop offset="0.93" stop-color="#00757A"/>
<stop offset="1" stop-color="#007474"/>
</radialGradient>
<radialGradient id="paint5_radial_42_46498" cx="0" cy="0" r="1" gradientUnits="userSpaceOnUse" gradientTransform="translate(12.2868 91.6279) scale(12.8053 12.8295)">
<stop stop-color="#0087C2"/>
<stop offset="0.31" stop-color="#0082AD"/>
<stop offset="0.93" stop-color="#00757A"/>
<stop offset="1" stop-color="#007474"/>
</radialGradient>
<radialGradient id="paint6_radial_42_46498" cx="0" cy="0" r="1" gradientUnits="userSpaceOnUse" gradientTransform="translate(14.8092 94.9606) scale(12.7142 12.7382)">
<stop stop-color="#0087C2"/>
<stop offset="0.31" stop-color="#0082AD"/>
<stop offset="0.93" stop-color="#00757A"/>
<stop offset="1" stop-color="#007474"/>
</radialGradient>
<radialGradient id="paint7_radial_42_46498" cx="0" cy="0" r="1" gradientUnits="userSpaceOnUse" gradientTransform="translate(116.765 92.6933) scale(12.8053 12.8295)">
<stop stop-color="#0087C2"/>
<stop offset="0.31" stop-color="#0082AD"/>
<stop offset="0.93" stop-color="#00757A"/>
<stop offset="1" stop-color="#007474"/>
</radialGradient>
<radialGradient id="paint8_radial_42_46498" cx="0" cy="0" r="1" gradientUnits="userSpaceOnUse" gradientTransform="translate(114.258 95.0825) scale(12.0458 12.0685)">
<stop stop-color="#0087C2"/>
<stop offset="0.31" stop-color="#0082AD"/>
<stop offset="0.93" stop-color="#00757A"/>
<stop offset="1" stop-color="#007474"/>
</radialGradient>
<radialGradient id="paint9_radial_42_46498" cx="0" cy="0" r="1" gradientUnits="userSpaceOnUse" gradientTransform="translate(106.604 100.577) scale(11.4534 11.475)">
<stop stop-color="#0087C2"/>
<stop offset="0.31" stop-color="#0082AD"/>
<stop offset="0.93" stop-color="#00757A"/>
<stop offset="1" stop-color="#007474"/>
</radialGradient>
<radialGradient id="paint10_radial_42_46498" cx="0" cy="0" r="1" gradientUnits="userSpaceOnUse" gradientTransform="translate(99.0396 102.479) scale(12.8053 12.8295)">
<stop stop-color="#0087C2"/>
<stop offset="0.31" stop-color="#0082AD"/>
<stop offset="0.93" stop-color="#00757A"/>
<stop offset="1" stop-color="#007474"/>
</radialGradient>
<clipPath id="clip0_42_46498">
<rect width="250" height="232.955" fill="white" transform="translate(0.5 0.0561523)"/>
</clipPath>
</defs>
</svg>
